<svg xmlns="http://www.w3.org/2000/svg" xmlns:xlink="http://www.w3.org/1999/xlink" viewBox="0 0 1920 1091">
  <defs>
    <style>
      .cls-1 {
        fill: url(#linear-gradient);
      }

      .cls-2 {
        fill: url(#linear-gradient-2);
      }

      .cls-3 {
        fill: url(#linear-gradient-3);
      }

      .cls-4 {
        fill: url(#linear-gradient-4);
      }

      .cls-5 {
        opacity: 0.63;
      }

      .cls-6 {
        fill: #fff;
      }

      .cls-7 {
        opacity: 0.24;
      }
    </style>
    <linearGradient id="linear-gradient" x1="833.95922" y1="213.51455" x2="833.95922" y2="617.0001" gradientTransform="matrix(-1, 0, 0, 1, 1907.4592, 0)" gradientUnits="userSpaceOnUse">
      <stop offset="0" stop-color="#a879be"/>
      <stop offset="0.34306" stop-color="#c19bd0"/>
      <stop offset="1" stop-color="#f8e5f8"/>
    </linearGradient>
    <linearGradient id="linear-gradient-2" x1="1098.03969" y1="181.5276" x2="1098.03969" y2="807.00034" gradientTransform="matrix(-1, 0, 0, 1, 2059.74642, 0)" gradientUnits="userSpaceOnUse">
      <stop offset="0.11621" stop-color="#302a49"/>
      <stop offset="0.41351" stop-color="#37314f" stop-opacity="0.96517"/>
      <stop offset="0.59392" stop-color="#4e4663" stop-opacity="0.8498"/>
      <stop offset="0.74309" stop-color="#756b86" stop-opacity="0.65299"/>
      <stop offset="0.87441" stop-color="#ad9fb6" stop-opacity="0.37643"/>
      <stop offset="0.99427" stop-color="#f4e1f5" stop-opacity="0.01984"/>
      <stop offset="1" stop-color="#f8e5f8" stop-opacity="0"/>
    </linearGradient>
    <linearGradient id="linear-gradient-3" x1="122.91808" y1="467.73724" x2="1439.2041" y2="467.73724" gradientTransform="translate(322.5108 -395.95791) scale(0.79806 1.85616)" gradientUnits="userSpaceOnUse">
      <stop offset="0" stop-color="#8647be"/>
      <stop offset="1" stop-color="#f8aeff" stop-opacity="0"/>
    </linearGradient>
    <linearGradient id="linear-gradient-4" x1="66.5278" y1="450.57064" x2="1303.73454" y2="450.57064" gradientTransform="translate(430.93294 -440.65197) scale(0.79806 1.85616)" gradientUnits="userSpaceOnUse">
      <stop offset="0" stop-color="#8647be"/>
      <stop offset="1" stop-color="#f9aa89" stop-opacity="0"/>
    </linearGradient>
  </defs>
  <title>about-sky</title>
  <g id="Layer_1" data-name="Layer 1">
    <path class="cls-1" d="M2153,471.0001s-687.4571-92.81889-705.538-92.81889-45.20224-7-66.6733,0-11.30055,10.88889-22.60111,11.44445-15.82078-7.55556-24.86123,0-15.82078,17.55555-22.60111,14.55555-33.90168-19-40.682-19-18.0809-2.22222-18.0809-10.11111-29.38145-14.88889-29.38145-14.88889l-10.1705-15s-11.30056,1-14.69072,0-18.0809,0-23.73118-8-28.25139-8.33333-28.25139-8.33333-13.184-17.8363-24.10786-17.08482-33.1483-6.91518-33.1483-1.91518-12.05393-8.66667-9.41713-11-7.53371-3.33333-7.53371-3.33333-10.92387-10.66667-18.83426-9.66667-45.9556,6.66667-49.72246,21-44.44886,3.66667-77.22048,29c0,0-13.184-.66667-15.06741,3s-42.94212,29-51.98256,29.33333-55.37274,9.33334-77.22048-4.66666a44.71721,44.71721,0,0,0-42.56544-3.33334s-14.314-16.187-28.25139-14.92685-44.07218,1.92685-45.20224,1.59352-19.58763-14.33333-23.35448-14.33333-23.35449-.66667-23.35449-3.66667-19.211-12.8363-24.48454-17.08482-13.93736-9.24851-16.95084-9.24851-22.22443-14-30.13482-14-43.3188-25-119.03254,3.33333c0,0-64.78987,38-69.31009,36.66667s-38.4219-6.33334-39.92864-5.33334-14.69073-1-15.06741-2-13.56067-7.33333-16.95084-7.33333-12.43061,2.66667-19.58763-4.66667-22.60112-15.66666-25.6146-15.66666-21.09437-5-22.60112-7-19.21094-10.66667-22.22443-10.33334-3.01348-8-10.1705-8-47.46234-16.33333-79.85727-9c0,0-9.04045-5-12.43062-9.66666s-26.368-12-27.87471-12-2.63679-11.66667-8.28707-11.66667-21.84775-.66667-23.73118-2.33333-9.41713-10-16.19746-10-24.3182,8.21359-24.3182,8.21359L5.894,617.0001l2135.80546-56Z"/>
    <path class="cls-2" d="M2006.332,181.65519s-41.52384-1.56291-46.1376,6.25163-41.52384,6.25164-46.1376,15.6291-29.22048,15.62909-29.22048,15.62909l-26.14464,21.88074s-26.14465-4.68873-39.98593,0-33.3582,11.2097-33.3582,11.2097-14.35464,14.58789-16.4053,8.33594-20.50663,13.19856-20.50663,13.19856-24.60795,7.64127-25.97506,11.11458-19.82307,21.53449-21.87373,19.45051-22.55729-.361-24.60795.16685-20.50663,10.25307-23.24084,10.25307-26.65862,9.03059-29.39284,3.4733-37.59548-18.06119-37.59548-18.06119-21.19018-18.75585-28.70927-18.75585-10.93687-30.56509-99.11536-9.72525c0,0-51.26657,32.64907-62.20343,40.985s-22.55729,9.72525-27.34217,11.11457-19.13952,12.5039-22.55729,12.5039-15.03819,6.94662-20.50663,6.252-17.08885-2.681-23.92439.04883-25.97506,14.53905-31.4435,14.53905-8.20265-4.168-17.77241-3.47331-32.127,13.89323-37.59548,12.5039-21.87373,7.64128-28.02572,3.47331-58.78566-36.817-66.30476-36.817-53.31722-28.48111-53.31722-28.48111l-28.70928-6.25195s-34.17771-19.60391-42.38036-21.95852-21.19018-12.07988-21.19018-12.07988-25.29151,16.67187-30.07639,26.39713-37.59548,25.0078-38.279,27.09178-41.01325,23.61848-47.8488,26.39713-16.4053,2.084-19.82307,5.55729-15.72174,12.5039-15.72174,12.5039l-20.50663,8.74961-6.83554,7.22759s-32.12705,15.97721-34.17771,15.97721-36.22838,4.168-36.22838,0-17.7724-10.41992-17.7724-10.41992-12.98753-11.80924-23.24085-11.80924-23.92439-8.33593-56.05144,7.64128-30.75994,21.53449-34.86127,21.53449-26.65861-4.168-29.39283,4.86263-21.87373,14.58789-21.87373,14.58789l-48.53235-11.80924s-19.13952,2.77864-21.19018,2.084,0-9.0306-9.56976-9.72526-28.02572.69466-30.07638-2.77864-24.608-19.45051-24.608-19.45051-13.67109-6.252-18.456-6.252-29.39283-11.80923-60.15277-2.77864-31.44349,14.58788-41.01325,13.19856-25.97506-3.4733-25.97506-3.4733l-12.304,11.80924-36.91193-6.25195s-14.35464,19.45051-21.87374,22.92381-213.409,96.47265-261.08448,18.32718S-20,807.00034-20,807.00034l1970-4.065Z"/>
  </g>
  <g id="Layer_2" data-name="Layer 2">
    <rect class="cls-3" x="420.60715" y="-543.59454" width="1050.47899" height="2031.66806" transform="translate(1418.08614 -473.60715) rotate(90)"/>
    <rect class="cls-4" x="484.02631" y="-621.03725" width="987.36875" height="2033.43729" transform="translate(1373.39208 -582.0293) rotate(90)"/>
  </g>
  <g id="Layer_3" data-name="Layer 3">
    <g class="cls-5">
      <path class="cls-6" d="M1117.2466,254.12742c.916,0,3.13011-1.37142,1.2001-1.37142-.916,0-3.13012,1.37142-1.2001,1.37142Z"/>
    </g>
    <g class="cls-5">
      <path class="cls-6" d="M1603.6586,6.05764c7.72143,0,7.73422-12,0-12-7.72142,0-7.73421,12,0,12Z"/>
    </g>
    <g class="cls-5">
      <path class="cls-6" d="M1233.84665,304.6388c3.86071,0,3.8671-6,0-6-3.86072,0-3.86711,6,0,6Z"/>
    </g>
    <g class="cls-5">
      <path class="cls-6" d="M785.84665,175.94171c5.79107,0,5.80066-9,0-9-5.79107,0-5.80067,9,0,9Z"/>
    </g>
    <g class="cls-5">
      <path class="cls-6" d="M1589.84665,114.94171a1.5009,1.5009,0,0,0,0-3,1.5009,1.5009,0,0,0,0,3Z"/>
    </g>
    <g class="cls-5">
      <path class="cls-6" d="M289.84665,114.94171a1.5009,1.5009,0,0,0,0-3,1.5009,1.5009,0,0,0,0,3Z"/>
    </g>
    <g class="cls-5">
      <path class="cls-6" d="M429.84665,184.94171a1.5009,1.5009,0,0,0,0-3,1.5009,1.5009,0,0,0,0,3Z"/>
    </g>
    <g class="cls-5">
      <path class="cls-6" d="M1107.84665,90.94171a1.5009,1.5009,0,0,0,0-3,1.5009,1.5009,0,0,0,0,3Z"/>
    </g>
    <g class="cls-5">
      <path class="cls-6" d="M1633.84665,301.1388a1.5009,1.5009,0,0,0,0-3,1.5009,1.5009,0,0,0,0,3Z"/>
    </g>
    <g class="cls-5">
      <path class="cls-6" d="M1765.84665,256.94171a1.5009,1.5009,0,0,0,0-3,1.5009,1.5009,0,0,0,0,3Z"/>
    </g>
    <g class="cls-5">
      <path class="cls-6" d="M1801.84665,56.94171a1.5009,1.5009,0,0,0,0-3,1.5009,1.5009,0,0,0,0,3Z"/>
    </g>
    <g class="cls-5">
      <path class="cls-6" d="M1735.84665,144.94171a1.5009,1.5009,0,0,0,0-3,1.5009,1.5009,0,0,0,0,3Z"/>
    </g>
    <g class="cls-5">
      <path class="cls-6" d="M77.84665,110.44171c3.86071,0,3.8671-6,0-6-3.86072,0-3.86711,6,0,6Z"/>
    </g>
    <g class="cls-5">
      <path class="cls-6" d="M1097.84665,164.44171c3.86071,0,3.8671-6,0-6-3.86072,0-3.86711,6,0,6Z"/>
    </g>
    <g class="cls-5">
      <path class="cls-6" d="M1353.84665,86.44171c3.86071,0,3.8671-6,0-6-3.86072,0-3.86711,6,0,6Z"/>
    </g>
    <g class="cls-5">
      <path class="cls-6" d="M1669.84665,266.44171c3.86071,0,3.8671-6,0-6-3.86072,0-3.86711,6,0,6Z"/>
    </g>
    <g class="cls-5">
      <path class="cls-6" d="M962.17179,125.54325c5.79107,0,5.80067-9,0-9-5.79107,0-5.80066,9,0,9Z"/>
    </g>
    <g class="cls-7">
      <path class="cls-6" d="M1029.30492,228.34509c1.19576,0,3.03626-1.80676,1.08345-1.80676-1.19576,0-3.03626,1.80676-1.08345,1.80676Z"/>
    </g>
    <g class="cls-7">
      <path class="cls-6" d="M1422.9124,158.05314c.64248,0,3.28742-1.22286,1.86849-1.22286-.64248,0-3.28742,1.22286-1.86849,1.22286Z"/>
    </g>
    <g class="cls-7">
      <path class="cls-6" d="M715.723,158.52085c1.66777,0,2.21322-2.15829.24734-2.15829-1.66777,0-2.21323,2.15829-.24734,2.15829Z"/>
    </g>
    <g class="cls-7">
      <path class="cls-6" d="M839.23179,90.07214c.84754,0,3.14721-1.26087,1.22972-1.26087-.84754,0-3.14722,1.26087-1.22972,1.26087Z"/>
    </g>
    <g class="cls-7">
      <path class="cls-6" d="M867.31169,176.37036c1.2284,0,3.02286-1.8573,1.06991-1.8573-1.2284,0-3.02286,1.8573-1.06991,1.8573Z"/>
    </g>
    <g class="cls-7">
      <path class="cls-6" d="M458.91169,164.05048c.63925,0,3.28621-1.21755,1.86991-1.21755-.63925,0-3.2862,1.21755-1.86991,1.21755Z"/>
    </g>
    <g class="cls-7">
      <path class="cls-6" d="M361.25568,116.16132c.95881,0,3.11823-1.43922,1.18193-1.43922-.95881,0-3.11823,1.43922-1.18193,1.43922Z"/>
    </g>
    <g class="cls-7">
      <path class="cls-6" d="M330.91077,242.047c.63507,0,3.28461-1.21064,1.87176-1.21064-.63508,0-3.28462,1.21064-1.87176,1.21064Z"/>
    </g>
    <g class="cls-7">
      <path class="cls-6" d="M148.89905,170.00331c.584,0,3.26294-1.12321,1.89519-1.12321-.584,0-3.26294,1.12321-1.89519,1.12321Z"/>
    </g>
    <g class="cls-7">
      <path class="cls-6" d="M53.30647,202.35086c1.20322,0,3.03324-1.8183,1.08036-1.8183-1.20323,0-3.03324,1.8183-1.08036,1.8183Z"/>
    </g>
    <g class="cls-7">
      <path class="cls-6" d="M167.72394,254.52446c1.67038,0,2.211-2.1655.24541-2.1655-1.67037,0-2.211,2.1655-.24541,2.1655Z"/>
    </g>
    <g class="cls-7">
      <path class="cls-6" d="M1543.71946,100.50771c1.65821,0,2.22151-2.132.25438-2.132-1.65822,0-2.22151,2.132-.25438,2.132Z"/>
    </g>
    <g class="cls-7">
      <path class="cls-6" d="M1551.24606,220.12542c.91349,0,3.13078-1.36742,1.20117-1.36742-.91349,0-3.13078,1.36742-1.20117,1.36742Z"/>
    </g>
    <g class="cls-7">
      <path class="cls-6" d="M1417.26629,122.20091c1.00936,0,3.103-1.5184,1.16071-1.5184-1.00936,0-3.103,1.5184-1.16071,1.5184Z"/>
    </g>
    <g class="cls-7">
      <path class="cls-6" d="M1471.71248,270.48168c1.639,0,2.238-2.07994.26833-2.07994-1.639,0-2.23795,2.07994-.26833,2.07994Z"/>
    </g>
    <g class="cls-7">
      <path class="cls-6" d="M1571.32517,180.42065c1.293,0,2.99486-1.95788,1.043-1.95788-1.293,0-2.99487,1.95788-1.043,1.95788Z"/>
    </g>
    <g class="cls-7">
      <path class="cls-6" d="M1192.911,158.04777c.636,0,3.285-1.21212,1.87137-1.21212-.636,0-3.285,1.21212-1.87137,1.21212Z"/>
    </g>
    <g class="cls-7">
      <path class="cls-6" d="M1294.91621,282.06734c.65993,0,3.29369-1.25126,1.86088-1.25126-.65994,0-3.2937,1.25126-1.86088,1.25126Z"/>
    </g>
    <g class="cls-7">
      <path class="cls-6" d="M849.92081,264.5367c1.29526,0,2.99385-1.96139,1.042-1.96139-1.29527,0-2.99386,1.96139-1.042,1.96139Z"/>
    </g>
    <g class="cls-7">
      <path class="cls-6" d="M496.73464,149.341c1.71755,0,6.28914-2.55847,2.4496-2.55847-1.71755,0-6.28914,2.55847-2.4496,2.55847Z"/>
    </g>
    <g class="cls-7">
      <path class="cls-6" d="M601.0574,201.67639c1.16136,0,6.52273-2.23447,3.79358-2.23447-1.16135,0-6.52273,2.23447-3.79358,2.23447Z"/>
    </g>
    <g class="cls-7">
      <path class="cls-6" d="M586.23851,100.8376c3.41726,0,4.35416-4.5467.433-4.5467-3.41727,0-4.35417,4.5467-.433,4.5467Z"/>
    </g>
    <g class="cls-7">
      <path class="cls-6" d="M873.23915,248.42315c1.82561,0,6.26193-2.73264,2.40293-2.73264-1.82561,0-6.26193,2.73264-2.40293,2.73264Z"/>
    </g>
    <g class="cls-7">
      <path class="cls-6" d="M1690.82577,70.40788c2.43722,0,6.05386-3.68425,2.148-3.68425-2.43722,0-6.05386,3.68425-2.148,3.68425Z"/>
    </g>
    <g class="cls-7">
      <path class="cls-6" d="M1794.1818,152.38576c1.773,0,6.27555-2.64827,2.42554-2.64827-1.773,0-6.27555,2.64827-2.42554,2.64827Z"/>
    </g>
    <g class="cls-7">
      <path class="cls-6" d="M1439.82437,223.0362c2.37189,0,6.08038-3.58316,2.175-3.58316-2.37189,0-6.08037,3.58316-2.175,3.58316Z"/>
    </g>
    <g class="cls-7">
      <path class="cls-6" d="M1286.54315,264.748c1.24776,0,6.56046-2.38395,3.75353-2.38395-1.24776,0-6.56045,2.38395-3.75353,2.38395Z"/>
    </g>
    <g class="cls-7">
      <path class="cls-6" d="M851.66977,136.62881c3.268,0,4.4845-4.13271.54395-4.13271-3.268,0-4.48451,4.13271-.54395,4.13271Z"/>
    </g>
    <g class="cls-7">
      <path class="cls-6" d="M546.40244,280.47c2.53068,0,6.01418-3.82939,2.10906-3.82939-2.53069,0-6.01419,3.82939-2.10906,3.82939Z"/>
    </g>
    <g class="cls-7">
      <path class="cls-6" d="M418.06545,263.1692c1.15676,0,6.52054-2.22625,3.79578-2.22625-1.15676,0-6.52054,2.22625-3.79578,2.22625Z"/>
    </g>
    <g class="cls-7">
      <path class="cls-6" d="M286.24571,237.30168c3.39688,0,4.37241-4.4885.44861-4.4885-3.39688,0-4.37241,4.4885-.44861,4.4885Z"/>
    </g>
    <g class="cls-7">
      <path class="cls-6" d="M238.84681,164.71076c2.18815,0,6.14951-3.29946,2.25106-3.29946-2.18815,0-6.14951,3.29946-2.25106,3.29946Z"/>
    </g>
    <g class="cls-7">
      <path class="cls-6" d="M136.90356,233.90007c2.4377,0,6.05367-3.685,2.14776-3.685-2.4377,0-6.05367,3.685-2.14776,3.685Z"/>
    </g>
    <g class="cls-7">
      <path class="cls-6" d="M439.46237,79.06538c3.86071,0,3.8671-6,0-6-3.86072,0-3.86711,6,0,6Z"/>
    </g>
    <g class="cls-7">
      <path class="cls-6" d="M1508.90889,82.06523c3.86072,0,3.86711-6,0-6-3.86071,0-3.86711,6,0,6Z"/>
    </g>
    <g class="cls-7">
      <path class="cls-6" d="M1403.71163,266.21309c3.86072,0,3.86711-6,0-6-3.86071,0-3.86711,6,0,6Z"/>
    </g>
    <g class="cls-7">
      <path class="cls-6" d="M101.58142,287.21519c3.86071,0,3.86711-6,0-6-3.86071,0-3.86711,6,0,6Z"/>
    </g>
    <g class="cls-7">
      <path class="cls-6" d="M613.84665,248.44171c3.86071,0,3.8671-6,0-6-3.86072,0-3.86711,6,0,6Z"/>
    </g>
    <g class="cls-7">
      <path class="cls-6" d="M39.84665,300.44171c3.86071,0,3.8671-6,0-6-3.86072,0-3.86711,6,0,6Z"/>
    </g>
    <g class="cls-7">
      <path class="cls-6" d="M1815.84665,216.44171c3.86071,0,3.8671-6,0-6-3.86072,0-3.86711,6,0,6Z"/>
    </g>
    <g class="cls-7">
      <path class="cls-6" d="M315.84665,130.94171a1.5009,1.5009,0,0,0,0-3,1.5009,1.5009,0,0,0,0,3Z"/>
    </g>
    <g class="cls-7">
      <path class="cls-6" d="M413.84665,162.94171a1.5009,1.5009,0,0,0,0-3,1.5009,1.5009,0,0,0,0,3Z"/>
    </g>
    <g class="cls-7">
      <path class="cls-6" d="M591.84665,160.94171a1.5009,1.5009,0,0,0,0-3,1.5009,1.5009,0,0,0,0,3Z"/>
    </g>
    <g class="cls-7">
      <path class="cls-6" d="M725.84665,230.94171a1.5009,1.5009,0,0,0,0-3,1.5009,1.5009,0,0,0,0,3Z"/>
    </g>
    <g class="cls-7">
      <path class="cls-6" d="M951.84665,208.94171a1.5009,1.5009,0,0,0,0-3,1.5009,1.5009,0,0,0,0,3Z"/>
    </g>
    <g class="cls-7">
      <path class="cls-6" d="M1077.84665,208.94171a1.5009,1.5009,0,0,0,0-3,1.5009,1.5009,0,0,0,0,3Z"/>
    </g>
    <g class="cls-7">
      <path class="cls-6" d="M1217.84665,196.94171a1.5009,1.5009,0,0,0,0-3,1.5009,1.5009,0,0,0,0,3Z"/>
    </g>
    <g class="cls-7">
      <path class="cls-6" d="M1297.84665,68.94171a1.5009,1.5009,0,0,0,0-3,1.5009,1.5009,0,0,0,0,3Z"/>
    </g>
    <g class="cls-7">
      <path class="cls-6" d="M1473.84665,200.94171a1.5009,1.5009,0,0,0,0-3,1.5009,1.5009,0,0,0,0,3Z"/>
    </g>
    <g class="cls-7">
      <path class="cls-6" d="M1577.84665,182.94171a1.5009,1.5009,0,0,0,0-3,1.5009,1.5009,0,0,0,0,3Z"/>
    </g>
    <g class="cls-7">
      <path class="cls-6" d="M1643.84665,228.94171a1.5009,1.5009,0,0,0,0-3,1.5009,1.5009,0,0,0,0,3Z"/>
    </g>
    <g class="cls-7">
      <path class="cls-6" d="M885.84665,260.94171a1.5009,1.5009,0,0,0,0-3,1.5009,1.5009,0,0,0,0,3Z"/>
    </g>
    <g class="cls-7">
      <path class="cls-6" d="M523.84665,198.94171a1.5009,1.5009,0,0,0,0-3,1.5009,1.5009,0,0,0,0,3Z"/>
    </g>
    <g class="cls-7">
      <path class="cls-6" d="M255.84665,226.94171a1.5009,1.5009,0,0,0,0-3,1.5009,1.5009,0,0,0,0,3Z"/>
    </g>
    <g class="cls-7">
      <path class="cls-6" d="M131.84665,56.94171a1.5009,1.5009,0,0,0,0-3,1.5009,1.5009,0,0,0,0,3Z"/>
    </g>
    <g class="cls-7">
      <path class="cls-6" d="M1255.84665,256.94171a1.5009,1.5009,0,0,0,0-3,1.5009,1.5009,0,0,0,0,3Z"/>
    </g>
    <g class="cls-7">
      <path class="cls-6" d="M1185.84665,120.94171a1.5009,1.5009,0,0,0,0-3,1.5009,1.5009,0,0,0,0,3Z"/>
    </g>
    <g class="cls-7">
      <path class="cls-6" d="M1359.84665,168.94171a1.5009,1.5009,0,0,0,0-3,1.5009,1.5009,0,0,0,0,3Z"/>
    </g>
    <g class="cls-7">
      <path class="cls-6" d="M1557.84665,166.94171a1.5009,1.5009,0,0,0,0-3,1.5009,1.5009,0,0,0,0,3Z"/>
    </g>
    <g class="cls-7">
      <path class="cls-6" d="M1783.84665,158.94171a1.5009,1.5009,0,0,0,0-3,1.5009,1.5009,0,0,0,0,3Z"/>
    </g>
    <g class="cls-7">
      <path class="cls-6" d="M1857.84665,94.94171a1.5009,1.5009,0,0,0,0-3,1.5009,1.5009,0,0,0,0,3Z"/>
    </g>
    <g class="cls-7">
      <path class="cls-6" d="M1879.84665,184.94171a1.5009,1.5009,0,0,0,0-3,1.5009,1.5009,0,0,0,0,3Z"/>
    </g>
    <g class="cls-5">
      <path class="cls-6" d="M209.84665,369.44171c7.72142,0,7.73421-12,0-12-7.72143,0-7.73422,12,0,12Z"/>
    </g>
    <g class="cls-5">
      <path class="cls-6" d="M489.84665,370.44171c3.86071,0,3.8671-6,0-6-3.86072,0-3.86711,6,0,6Z"/>
    </g>
    <g class="cls-5">
      <path class="cls-6" d="M679.84665,325.94171c5.79107,0,5.80066-9,0-9-5.79107,0-5.80067,9,0,9Z"/>
    </g>
    <g class="cls-7">
      <path class="cls-6" d="M1541.31291,312.3749c1.23426,0,3.0204-1.86639,1.06747-1.86639-1.23426,0-3.0204,1.86639-1.06747,1.86639Z"/>
    </g>
    <g class="cls-7">
      <path class="cls-6" d="M927.87255,345.36709c1.08147,0,3.07917-1.63027,1.13074-1.63027-1.08148,0-3.07918,1.63027-1.13074,1.63027Z"/>
    </g>
    <g class="cls-7">
      <path class="cls-6" d="M1681.79256,326.76944c2.27466,0,6.118-3.433,2.21527-3.433-2.27467,0-6.118,3.433-2.21527,3.433Z"/>
    </g>
    <g class="cls-7">
      <path class="cls-6" d="M1670.53193,456.76813c1.28356,0,6.57431-2.44345,3.73758-2.44345-1.28357,0-6.57431,2.44345-3.73758,2.44345Z"/>
    </g>
    <g class="cls-7">
      <path class="cls-6" d="M1121.54709,306.72979c1.22872,0,6.55267-2.35178,3.76215-2.35178-1.22872,0-6.55267,2.35178-3.76215,2.35178Z"/>
    </g>
    <g class="cls-7">
      <path class="cls-6" d="M1119.25481,367.02158c1.95766,0,6.22472-2.94135,2.347-2.94135-1.95766,0-6.22472,2.94135-2.347,2.94135Z"/>
    </g>
    <g class="cls-7">
      <path class="cls-6" d="M979.1715,412.64526c3.29044,0,4.46537-4.19321.52774-4.19321-3.29045,0-4.46538,4.19321-.52774,4.19321Z"/>
    </g>
    <g class="cls-7">
      <path class="cls-6" d="M876.25181,308.46795c1.88579,0,6.2455-2.82824,2.37732-2.82824-1.8858,0-6.24551,2.82824-2.37732,2.82824Z"/>
    </g>
    <g class="cls-7">
      <path class="cls-6" d="M577.22692,363.27958c3.38574,0,4.38233-4.4569.45709-4.4569-3.38574,0-4.38233,4.4569-.45709,4.4569Z"/>
    </g>
    <g class="cls-7">
      <path class="cls-6" d="M258.41082,335.94474c2.50185,0,6.02665-3.78453,2.12109-3.78453-2.50185,0-6.02665,3.78453-2.12109,3.78453Z"/>
    </g>
    <g class="cls-7">
      <path class="cls-6" d="M626.63392,314.21789c3.86072,0,3.86711-6,0-6-3.86071,0-3.8671,6,0,6Z"/>
    </g>
    <g class="cls-7">
      <path class="cls-6" d="M791.65043,308.21729c3.86071,0,3.8671-6,0-6-3.86072,0-3.86711,6,0,6Z"/>
    </g>
    <g class="cls-7">
      <path class="cls-6" d="M749.64623,479.23439c3.86071,0,3.8671-6,0-6-3.86072,0-3.86711,6,0,6Z"/>
    </g>
    <g class="cls-7">
      <path class="cls-6" d="M1403.71163,356.22209c3.86072,0,3.86711-6,0-6-3.86071,0-3.86711,6,0,6Z"/>
    </g>
    <g class="cls-7">
      <path class="cls-6" d="M212.59252,428.22929c3.86071,0,3.86711-6,0-6-3.86071,0-3.86711,6,0,6Z"/>
    </g>
    <g class="cls-7">
      <path class="cls-6" d="M1333.84665,416.6388c3.86071,0,3.8671-6,0-6-3.86072,0-3.86711,6,0,6Z"/>
    </g>
    <g class="cls-7">
      <path class="cls-6" d="M1519.84665,342.6388c3.86071,0,3.8671-6,0-6-3.86072,0-3.86711,6,0,6Z"/>
    </g>
    <g class="cls-7">
      <path class="cls-6" d="M762.66753,320.44171c3.86072,0,3.86711-6,0-6-3.86071,0-3.86711,6,0,6Z"/>
    </g>
    <g class="cls-7">
      <path class="cls-6" d="M639.84665,408.44171c3.86071,0,3.8671-6,0-6-3.86072,0-3.86711,6,0,6Z"/>
    </g>
    <g class="cls-7">
      <path class="cls-6" d="M945.84665,358.44171c3.86071,0,3.8671-6,0-6-3.86072,0-3.86711,6,0,6Z"/>
    </g>
    <g class="cls-7">
      <path class="cls-6" d="M252.4349,479.23439c3.86072,0,3.86711-6,0-6-3.86071,0-3.8671,6,0,6Z"/>
    </g>
    <g class="cls-7">
      <path class="cls-6" d="M163.84665,452.44171c3.86071,0,3.8671-6,0-6-3.86072,0-3.86711,6,0,6Z"/>
    </g>
    <g class="cls-7">
      <path class="cls-6" d="M333.84665,396.44171c3.86071,0,3.8671-6,0-6-3.86072,0-3.86711,6,0,6Z"/>
    </g>
    <g class="cls-7">
      <path class="cls-6" d="M137.96638,380.37778c3.86072,0,3.86711-6,0-6-3.86071,0-3.8671,6,0,6Z"/>
    </g>
    <g class="cls-7">
      <path class="cls-6" d="M1739.57241,416.6388c3.86072,0,3.86711-6,0-6-3.86071,0-3.86711,6,0,6Z"/>
    </g>
    <g class="cls-7">
      <path class="cls-6" d="M1643.84665,330.94171a1.5009,1.5009,0,0,0,0-3,1.5009,1.5009,0,0,0,0,3Z"/>
    </g>
    <g class="cls-7">
      <path class="cls-6" d="M1779.84665,356.94171a1.5009,1.5009,0,0,0,0-3,1.5009,1.5009,0,0,0,0,3Z"/>
    </g>
    <g class="cls-7">
      <path class="cls-6" d="M1031.84665,318.94171a1.5009,1.5009,0,0,0,0-3,1.5009,1.5009,0,0,0,0,3Z"/>
    </g>
    <g class="cls-7">
      <path class="cls-6" d="M425.84665,322.94171a1.5009,1.5009,0,0,0,0-3,1.5009,1.5009,0,0,0,0,3Z"/>
    </g>
  </g>
</svg>
