<svg xmlns="http://www.w3.org/2000/svg" xmlns:xlink="http://www.w3.org/1999/xlink" viewBox="0 0 273.51641 265.87323">
  <defs>
    <style>
      .cls-1, .cls-10, .cls-6, .cls-7, .cls-8, .cls-9 {
        fill: none;
      }

      .cls-1, .cls-2, .cls-3, .cls-6 {
        stroke: #312b49;
      }

      .cls-1, .cls-10, .cls-2, .cls-6, .cls-7, .cls-8, .cls-9 {
        stroke-linecap: round;
        stroke-linejoin: round;
      }

      .cls-1, .cls-2, .cls-3 {
        stroke-width: 2px;
      }

      .cls-2 {
        fill: #312b49;
      }

      .cls-3 {
        stroke-miterlimit: 10;
        fill: url(#linear-gradient);
      }

      .cls-4 {
        opacity: 0.38;
      }

      .cls-5 {
        fill: #fff;
      }

      .cls-6 {
        stroke-width: 4px;
      }

      .cls-7 {
        stroke: #9168ad;
      }

      .cls-10, .cls-7, .cls-8, .cls-9 {
        stroke-width: 5px;
      }

      .cls-8 {
        stroke: #6a4791;
      }

      .cls-9 {
        stroke: #cf91c0;
      }

      .cls-10 {
        stroke: #fff;
        opacity: 0.71;
      }
    </style>
    <linearGradient id="linear-gradient" x1="-261.07317" y1="39.44491" x2="-261.07317" y2="186.44491" gradientTransform="matrix(-1, 0, 0, 1, -124.64634, 0)" gradientUnits="userSpaceOnUse">
      <stop offset="0" stop-color="#7d52a1"/>
      <stop offset="0.15132" stop-color="#875ba0" stop-opacity="0.94404"/>
      <stop offset="0.40253" stop-color="#a3739d" stop-opacity="0.79264"/>
      <stop offset="0.72046" stop-color="#cf9a97" stop-opacity="0.54796"/>
      <stop offset="0.99876" stop-color="#fcc192" stop-opacity="0.3"/>
    </linearGradient>
  </defs>
  <title>bulb</title>
  <g id="Layer_1" data-name="Layer 1">
    <rect class="cls-1" x="91.43906" y="187.44491" width="89.97554" height="10.80299" rx="4.57472" ry="4.57472"/>
    <path class="cls-2" d="M137.11977,234.77644c-35.375.769-31.21284-36.52854-31.21284-36.52854h62.59169s4.16217,37.29756-31.21283,36.52854"/>
    <path class="cls-1" d="M128.035,234.78817s1.37416,8.44751,9.8334,8.44751,8.45923-8.45924,8.45923-8.45924"/>
    <path class="cls-3" d="M94.89966,170.17861c3.44333,2.51969,7.42258,11.65668,7.77717,16.2663h68c.35459-4.60962,4.60286-13.74661,8.0462-16.2663,17.58933-12.87112,28.4538-36.51829,28.4538-59.9837a70.75,70.75,0,0,0-141.5,0c0,24.42134,10.40321,47.26941,29.22283,59.9837"/>
    <g class="cls-4">
      <path class="cls-5" d="M150.03139,93.83925a.5003.5003,0,0,0,0-1,.5003.5003,0,0,0,0,1Z"/>
    </g>
    <g class="cls-4">
      <path class="cls-5" d="M175.20547,110.468a.5003.5003,0,0,0,0-1,.5003.5003,0,0,0,0,1Z"/>
    </g>
    <g class="cls-4">
      <path class="cls-5" d="M183.51985,98.92026a.5003.5003,0,0,0,0-1,.5003.5003,0,0,0,0,1Z"/>
    </g>
    <g class="cls-4">
      <path class="cls-5" d="M105.76632,110.16811a.5003.5003,0,0,0,0-1,.5003.5003,0,0,0,0,1Z"/>
    </g>
    <g class="cls-4">
      <path class="cls-5" d="M114.0807,129.79927a.5003.5003,0,0,0,0-1,.5003.5003,0,0,0,0,1Z"/>
    </g>
    <g class="cls-4">
      <path class="cls-5" d="M103.68773,121.023a.5003.5003,0,0,0,0-1,.5003.5003,0,0,0,0,1Z"/>
    </g>
    <g class="cls-4">
      <path class="cls-5" d="M101.84009,146.428a.5003.5003,0,0,0,0-1,.5003.5003,0,0,0,0,1Z"/>
    </g>
    <g class="cls-4">
      <path class="cls-5" d="M170.81733,138.41354a.5003.5003,0,0,0,0-1,.5003.5003,0,0,0,0,1Z"/>
    </g>
    <g class="cls-4">
      <path class="cls-5" d="M151.879,125.711a.5003.5003,0,0,0,0-1,.5003.5003,0,0,0,0,1Z"/>
    </g>
    <g class="cls-4">
      <path class="cls-5" d="M157.422,143.7255a.5003.5003,0,0,0,0-1,.5003.5003,0,0,0,0,1Z"/>
    </g>
    <g class="cls-4">
      <path class="cls-5" d="M174.0507,124.32529a.5003.5003,0,0,0,0-1,.5003.5003,0,0,0,0,1Z"/>
    </g>
    <g class="cls-4">
      <path class="cls-5" d="M163.42677,114.39424a.5003.5003,0,0,0,0-1,.5003.5003,0,0,0,0,1Z"/>
    </g>
    <g class="cls-4">
      <path class="cls-5" d="M90.98521,83.83925a.5003.5003,0,0,0,0-1,.5003.5003,0,0,0,0,1Z"/>
    </g>
    <g class="cls-4">
      <path class="cls-5" d="M90.06139,94.46318a.5003.5003,0,0,0,0-1,.5003.5003,0,0,0,0,1Z"/>
    </g>
    <g class="cls-4">
      <path class="cls-5" d="M105.53537,94.00127a.5003.5003,0,0,0,0-1,.5003.5003,0,0,0,0,1Z"/>
    </g>
    <g class="cls-4">
      <path class="cls-5" d="M162.503,159.19948a.5003.5003,0,0,0,0-1,.5003.5003,0,0,0,0,1Z"/>
    </g>
    <g class="cls-4">
      <path class="cls-5" d="M152.11,158.04471a.5003.5003,0,0,0,0-1,.5003.5003,0,0,0,0,1Z"/>
    </g>
    <g class="cls-4">
      <path class="cls-5" d="M147.25993,142.33977a.5003.5003,0,0,0,0-1,.5003.5003,0,0,0,0,1Z"/>
    </g>
    <g class="cls-4">
      <path class="cls-5" d="M168.27682,146.72792a.5003.5003,0,0,0,0-1,.5003.5003,0,0,0,0,1Z"/>
    </g>
    <g class="cls-4">
      <path class="cls-5" d="M167.584,170.28531a.5003.5003,0,0,0,0-1,.5003.5003,0,0,0,0,1Z"/>
    </g>
    <g class="cls-4">
      <path class="cls-5" d="M154.65049,167.74481a.5003.5003,0,0,0,0-1,.5003.5003,0,0,0,0,1Z"/>
    </g>
    <g class="cls-4">
      <path class="cls-5" d="M189.06276,97.76548a.5003.5003,0,0,0,0-1,.5003.5003,0,0,0,0,1Z"/>
    </g>
    <g class="cls-4">
      <path class="cls-5" d="M190.44849,87.83443a.5003.5003,0,0,0,0-1,.5003.5003,0,0,0,0,1Z"/>
    </g>
    <g class="cls-4">
      <path class="cls-5" d="M175.43643,93.6083a.5003.5003,0,0,0,0-1,.5003.5003,0,0,0,0,1Z"/>
    </g>
    <g class="cls-4">
      <path class="cls-5" d="M174.0507,102.65363a1.0006,1.0006,0,0,0,0-2,1.0006,1.0006,0,0,0,0,2Z"/>
    </g>
    <g class="cls-4">
      <path class="cls-5" d="M96.06622,107.89665a1.0006,1.0006,0,0,0,0-2,1.0006,1.0006,0,0,0,0,2Z"/>
    </g>
    <g class="cls-4">
      <path class="cls-5" d="M112.464,149.23757a1.0006,1.0006,0,0,0,0-2,1.0006,1.0006,0,0,0,0,2Z"/>
    </g>
    <g class="cls-4">
      <path class="cls-5" d="M164.35059,131.523a1.0006,1.0006,0,0,0,0-2,1.0006,1.0006,0,0,0,0,2Z"/>
    </g>
    <g class="cls-4">
      <path class="cls-5" d="M95.83527,89.45835a1.5009,1.5009,0,0,0,0-3,1.5009,1.5009,0,0,0,0,3Z"/>
    </g>
    <g class="cls-4">
      <path class="cls-5" d="M151.879,141.03023a1.5009,1.5009,0,0,0,0-3,1.5009,1.5009,0,0,0,0,3Z"/>
    </g>
    <g class="cls-4">
      <path class="cls-5" d="M99.99245,133.80168a1.5009,1.5009,0,0,0,0-3,1.5009,1.5009,0,0,0,0,3Z"/>
    </g>
    <g class="cls-4">
      <path class="cls-5" d="M115.46643,168.44491a1.5009,1.5009,0,0,0,0-3,1.5009,1.5009,0,0,0,0,3Z"/>
    </g>
    <g class="cls-4">
      <path class="cls-5" d="M183.51985,149.73757a1.5009,1.5009,0,0,0,0-3,1.5009,1.5009,0,0,0,0,3Z"/>
    </g>
    <g class="cls-4">
      <path class="cls-5" d="M145.18134,168.51386a1.5009,1.5009,0,0,0,0-3,1.5009,1.5009,0,0,0,0,3Z"/>
    </g>
    <g class="cls-4">
      <path class="cls-5" d="M115.3431,120.52686a1.5009,1.5009,0,0,0,0-3,1.5009,1.5009,0,0,0,0,3Z"/>
    </g>
    <g class="cls-4">
      <path class="cls-5" d="M143.03139,70.83925a.5003.5003,0,0,0,0-1,.5003.5003,0,0,0,0,1Z"/>
    </g>
    <g class="cls-4">
      <path class="cls-5" d="M168.20547,87.468a.5003.5003,0,0,0,0-1,.5003.5003,0,0,0,0,1Z"/>
    </g>
    <g class="cls-4">
      <path class="cls-5" d="M176.51985,75.92026a.5003.5003,0,0,0,0-1,.5003.5003,0,0,0,0,1Z"/>
    </g>
    <g class="cls-4">
      <path class="cls-5" d="M98.76632,87.16811a.5003.5003,0,0,0,0-1,.5003.5003,0,0,0,0,1Z"/>
    </g>
    <g class="cls-4">
      <path class="cls-5" d="M107.0807,106.79927a.5003.5003,0,0,0,0-1,.5003.5003,0,0,0,0,1Z"/>
    </g>
    <g class="cls-4">
      <path class="cls-5" d="M96.68773,98.023a.5003.5003,0,0,0,0-1,.5003.5003,0,0,0,0,1Z"/>
    </g>
    <g class="cls-4">
      <path class="cls-5" d="M94.84009,123.428a.5003.5003,0,0,0,0-1,.5003.5003,0,0,0,0,1Z"/>
    </g>
    <g class="cls-4">
      <path class="cls-5" d="M163.81733,115.41354a.5003.5003,0,0,0,0-1,.5003.5003,0,0,0,0,1Z"/>
    </g>
    <g class="cls-4">
      <path class="cls-5" d="M144.879,102.711a.5003.5003,0,0,0,0-1,.5003.5003,0,0,0,0,1Z"/>
    </g>
    <g class="cls-4">
      <path class="cls-5" d="M150.422,120.7255a.5003.5003,0,0,0,0-1,.5003.5003,0,0,0,0,1Z"/>
    </g>
    <g class="cls-4">
      <path class="cls-5" d="M167.0507,101.32529a.5003.5003,0,0,0,0-1,.5003.5003,0,0,0,0,1Z"/>
    </g>
    <g class="cls-4">
      <path class="cls-5" d="M156.42677,91.39424a.5003.5003,0,0,0,0-1,.5003.5003,0,0,0,0,1Z"/>
    </g>
    <g class="cls-4">
      <path class="cls-5" d="M83.98521,60.83925a.5003.5003,0,0,0,0-1,.5003.5003,0,0,0,0,1Z"/>
    </g>
    <g class="cls-4">
      <path class="cls-5" d="M83.06139,71.46318a.5003.5003,0,0,0,0-1,.5003.5003,0,0,0,0,1Z"/>
    </g>
    <g class="cls-4">
      <path class="cls-5" d="M98.53537,71.00127a.5003.5003,0,0,0,0-1,.5003.5003,0,0,0,0,1Z"/>
    </g>
    <g class="cls-4">
      <path class="cls-5" d="M155.503,136.19948a.5003.5003,0,0,0,0-1,.5003.5003,0,0,0,0,1Z"/>
    </g>
    <g class="cls-4">
      <path class="cls-5" d="M145.11,135.04471a.5003.5003,0,0,0,0-1,.5003.5003,0,0,0,0,1Z"/>
    </g>
    <g class="cls-4">
      <path class="cls-5" d="M140.25993,119.33977a.5003.5003,0,0,0,0-1,.5003.5003,0,0,0,0,1Z"/>
    </g>
    <g class="cls-4">
      <path class="cls-5" d="M161.27682,123.72792a.5003.5003,0,0,0,0-1,.5003.5003,0,0,0,0,1Z"/>
    </g>
    <g class="cls-4">
      <path class="cls-5" d="M160.584,147.28531a.5003.5003,0,0,0,0-1,.5003.5003,0,0,0,0,1Z"/>
    </g>
    <g class="cls-4">
      <path class="cls-5" d="M147.65049,144.74481a.5003.5003,0,0,0,0-1,.5003.5003,0,0,0,0,1Z"/>
    </g>
    <g class="cls-4">
      <path class="cls-5" d="M182.06276,74.76548a.5003.5003,0,0,0,0-1,.5003.5003,0,0,0,0,1Z"/>
    </g>
    <g class="cls-4">
      <path class="cls-5" d="M183.44849,64.83443a.5003.5003,0,0,0,0-1,.5003.5003,0,0,0,0,1Z"/>
    </g>
    <g class="cls-4">
      <path class="cls-5" d="M168.43643,70.6083a.5003.5003,0,0,0,0-1,.5003.5003,0,0,0,0,1Z"/>
    </g>
    <g class="cls-4">
      <path class="cls-5" d="M167.0507,79.65363a1.0006,1.0006,0,0,0,0-2,1.0006,1.0006,0,0,0,0,2Z"/>
    </g>
    <g class="cls-4">
      <path class="cls-5" d="M89.06622,84.89665a1.0006,1.0006,0,0,0,0-2,1.0006,1.0006,0,0,0,0,2Z"/>
    </g>
    <g class="cls-4">
      <path class="cls-5" d="M105.464,126.23757a1.0006,1.0006,0,0,0,0-2,1.0006,1.0006,0,0,0,0,2Z"/>
    </g>
    <g class="cls-4">
      <path class="cls-5" d="M157.35059,108.523a1.0006,1.0006,0,0,0,0-2,1.0006,1.0006,0,0,0,0,2Z"/>
    </g>
    <g class="cls-4">
      <path class="cls-5" d="M88.83527,66.45835a1.5009,1.5009,0,0,0,0-3,1.5009,1.5009,0,0,0,0,3Z"/>
    </g>
    <g class="cls-4">
      <path class="cls-5" d="M144.879,118.03023a1.5009,1.5009,0,0,0,0-3,1.5009,1.5009,0,0,0,0,3Z"/>
    </g>
    <g class="cls-4">
      <path class="cls-5" d="M92.99245,110.80168a1.5009,1.5009,0,0,0,0-3,1.5009,1.5009,0,0,0,0,3Z"/>
    </g>
    <g class="cls-4">
      <path class="cls-5" d="M108.46643,145.44491a1.5009,1.5009,0,0,0,0-3,1.5009,1.5009,0,0,0,0,3Z"/>
    </g>
    <g class="cls-4">
      <path class="cls-5" d="M150.6529,154.75205a1.5009,1.5009,0,0,0,0-3,1.5009,1.5009,0,0,0,0,3Z"/>
    </g>
    <g class="cls-4">
      <path class="cls-5" d="M138.18134,145.51386a1.5009,1.5009,0,0,0,0-3,1.5009,1.5009,0,0,0,0,3Z"/>
    </g>
    <g class="cls-4">
      <path class="cls-5" d="M108.3431,97.52686a1.5009,1.5009,0,0,0,0-3,1.5009,1.5009,0,0,0,0,3Z"/>
    </g>
    <path class="cls-6" d="M131.67683,186.44491s-1.40217-77.788-20.62772-71.63587-8.45924,19.22555-8.45924,19.22555,4.61413,5.38315,16.91848,3.84511,11.53533-1.53805,11.53533-1.53805,5.38315-14.61141,10.7663,0"/>
    <path class="cls-6" d="M141.67683,186.44491s.97335-77.788,20.1989-71.63587,8.45924,19.22555,8.45924,19.22555-4.61413,5.38315-16.91848,3.84511-11.53533-1.53805-11.53533-1.53805-5.38315-14.61141-10.7663,0"/>
    <line class="cls-7" x1="219.06594" y1="14.99186" x2="210.28773" y2="25.89796"/>
    <line class="cls-7" x1="220.12988" y1="24.83402" x2="209.22378" y2="16.05581"/>
    <line class="cls-8" x1="252.15011" y1="74.27047" x2="234.47593" y2="73.89174"/>
    <line class="cls-8" x1="243.12365" y1="82.91819" x2="243.50239" y2="65.24401"/>
    <line class="cls-9" x1="256.49852" y1="28.99186" x2="250.90209" y2="35.94491"/>
    <line class="cls-9" x1="257.17683" y1="35.26661" x2="250.22378" y2="29.67017"/>
    <g class="cls-4">
      <path class="cls-5" d="M189.06276,120.52686a1.5009,1.5009,0,0,0,0-3,1.5009,1.5009,0,0,0,0,3Z"/>
    </g>
    <g class="cls-4">
      <path class="cls-5" d="M156.42677,180.26541a1.5009,1.5009,0,0,0,0-3,1.5009,1.5009,0,0,0,0,3Z"/>
    </g>
    <line class="cls-7" x1="62.18652" y1="243.23568" x2="69.07949" y2="231.05015"/>
    <line class="cls-7" x1="59.54024" y1="233.69643" x2="71.72577" y2="240.5894"/>
    <line class="cls-8" x1="19.92532" y1="190.10841" x2="37.42688" y2="187.61533"/>
    <line class="cls-8" x1="27.42956" y1="180.11109" x2="29.92264" y2="197.61265"/>
    <line class="cls-9" x1="22.9788" y1="235.49274" x2="27.37332" y2="227.72401"/>
    <line class="cls-9" x1="21.2917" y1="229.41111" x2="29.06043" y2="233.80563"/>
  </g>
  <g id="Layer_2" data-name="Layer 2">
    <path class="cls-10" d="M78.40493,103.30086s5.029-32.29738,29.17505-42.96161"/>
    <path class="cls-10" d="M120.441,55.04829s10.02912-4.78575,19.39533-2.20881"/>
  </g>
</svg>
