<svg id="Layer_1" data-name="Layer 1" xmlns="http://www.w3.org/2000/svg" xmlns:xlink="http://www.w3.org/1999/xlink" viewBox="0 0 339.79999 210.8">
  <defs>
    <style>
      .cls-1, .cls-5, .cls-8 {
        fill: none;
        stroke: #fff;
        stroke-miterlimit: 10;
      }

      .cls-2, .cls-3, .cls-4 {
        stroke: #302a48;
        stroke-linecap: round;
        stroke-linejoin: round;
      }

      .cls-2 {
        fill: url(#linear-gradient);
      }

      .cls-3 {
        fill: url(#linear-gradient-2);
      }

      .cls-4 {
        fill: url(#linear-gradient-3);
      }

      .cls-5 {
        stroke-width: 0.5px;
      }

      .cls-6, .cls-8 {
        opacity: 0.38;
      }

      .cls-7 {
        fill: #fff;
      }

      .cls-8 {
        stroke-width: 3px;
      }
    </style>
    <linearGradient id="linear-gradient" x1="63.18831" y1="84.28059" x2="254.55981" y2="84.28059" gradientUnits="userSpaceOnUse">
      <stop offset="0" stop-color="#7d51a0"/>
      <stop offset="1" stop-color="#f5accc" stop-opacity="0"/>
    </linearGradient>
    <linearGradient id="linear-gradient-2" x1="263.81661" y1="187.4675" x2="329.43184" y2="121.85226" xlink:href="#linear-gradient"/>
    <linearGradient id="linear-gradient-3" x1="32.43882" y1="172.00964" x2="58.33445" y2="172.00964" xlink:href="#linear-gradient"/>
  </defs>
  <title>design</title>
  <path class="cls-1" d="M266.31072,107.84562V20.40349a12.03527,12.03527,0,0,0-12-12H63.43743a12.03527,12.03527,0,0,0-12,12l-.27772,120.54882"/>
  <path class="cls-1" d="M60.33721,170.81371a11.8792,11.8792,0,0,0,3.10022.4234H254.31072a11.93769,11.93769,0,0,0,7.68092-2.79831"/>
  <rect class="cls-2" x="63.18831" y="19.14714" width="191.3715" height="130.26691" rx="5.2045" ry="5.2045"/>
  <rect class="cls-1" x="132.11801" y="171.23712" width="53.2997" height="31.49775"/>
  <rect class="cls-1" x="111.21284" y="199.07108" width="95.25862" height="3.66379"/>
  <rect class="cls-1" x="261.99065" y="107.74132" width="69.26714" height="94.79905" rx="5.37548" ry="5.37548"/>
  <rect class="cls-3" x="266.60058" y="115.77914" width="60.04728" height="77.76147" rx="5.61492" ry="5.61492"/>
  <circle class="cls-1" cx="296.62422" cy="198.02154" r="1.67552"/>
  <rect class="cls-1" x="30.29637" y="141.42104" width="30.18052" height="59.63214" rx="3.77089" ry="3.77089"/>
  <rect class="cls-4" x="32.43882" y="150.1358" width="25.89564" height="43.74767" rx="2.77188" ry="2.77188"/>
  <rect class="cls-5" x="39.61356" y="146.53352" width="11.54614" height="1.09528" rx="0.54764" ry="0.54764"/>
  <rect class="cls-1" x="42.96195" y="196.18194" width="4.84938" height="2.54015" rx="1.27007" ry="1.27007"/>
  <g class="cls-6">
    <path class="cls-7" d="M85.97646,58.73476a.5003.5003,0,0,0,0-1,.5003.5003,0,0,0,0,1Z"/>
  </g>
  <g class="cls-6">
    <path class="cls-7" d="M76.27061,81.65135a.5003.5003,0,0,0,0-1,.5003.5003,0,0,0,0,1Z"/>
  </g>
  <g class="cls-6">
    <path class="cls-7" d="M88.40293,71.40628a.5003.5003,0,0,0,0-1,.5003.5003,0,0,0,0,1Z"/>
  </g>
  <g class="cls-6">
    <path class="cls-7" d="M90.55978,101.06305a.5003.5003,0,0,0,0-1,.5003.5003,0,0,0,0,1Z"/>
  </g>
  <g class="cls-6">
    <path class="cls-7" d="M103.23131,27.99957a.5003.5003,0,0,0,0-1,.5003.5003,0,0,0,0,1Z"/>
  </g>
  <g class="cls-6">
    <path class="cls-7" d="M104.30974,40.40148a.5003.5003,0,0,0,0-1,.5003.5003,0,0,0,0,1Z"/>
  </g>
  <g class="cls-6">
    <path class="cls-7" d="M86.24607,39.86227a.5003.5003,0,0,0,0-1,.5003.5003,0,0,0,0,1Z"/>
  </g>
  <g class="cls-6">
    <path class="cls-7" d="M97.3,55.99947a1.0006,1.0006,0,0,0,0-2,1.0006,1.0006,0,0,0,0,2Z"/>
  </g>
  <g class="cls-6">
    <path class="cls-7" d="M78.15786,104.25912a1.0006,1.0006,0,0,0,0-2,1.0006,1.0006,0,0,0,0,2Z"/>
  </g>
  <g class="cls-6">
    <path class="cls-7" d="M97.56956,34.3917a1.5009,1.5009,0,0,0,0-3,1.5009,1.5009,0,0,0,0,3Z"/>
  </g>
  <g class="cls-6">
    <path class="cls-7" d="M92.71664,86.15624a1.5009,1.5009,0,0,0,0-3,1.5009,1.5009,0,0,0,0,3Z"/>
  </g>
  <g class="cls-6">
    <path class="cls-7" d="M74.653,126.59728a1.5009,1.5009,0,0,0,0-3,1.5009,1.5009,0,0,0,0,3Z"/>
  </g>
  <g class="cls-6">
    <path class="cls-7" d="M74.79694,70.65977a1.5009,1.5009,0,0,0,0-3,1.5009,1.5009,0,0,0,0,3Z"/>
  </g>
  <g class="cls-6">
    <path class="cls-7" d="M112.35935,50.286a1.5009,1.5009,0,0,0,0-3,1.5009,1.5009,0,0,0,0,3Z"/>
  </g>
  <g class="cls-6">
    <path class="cls-7" d="M73.02308,37.679a1.5009,1.5009,0,0,0,0-3,1.5009,1.5009,0,0,0,0,3Z"/>
  </g>
  <g class="cls-6">
    <path class="cls-7" d="M80.97406,49.81932a1.5009,1.5009,0,0,0,0-3,1.5009,1.5009,0,0,0,0,3Z"/>
  </g>
  <circle class="cls-8" cx="104.84485" cy="68.60031" r="1.61354"/>
  <g class="cls-6">
    <path class="cls-7" d="M311.44606,132.54491a.5003.5003,0,0,0,0-1,.5003.5003,0,0,0,0,1Z"/>
  </g>
  <g class="cls-6">
    <path class="cls-7" d="M319.54022,141.38372a1.0006,1.0006,0,0,0,0-2,1.0006,1.0006,0,0,0,0,2Z"/>
  </g>
  <g class="cls-6">
    <path class="cls-7" d="M320.454,127.89888a1.5009,1.5009,0,0,0,0-3,1.5009,1.5009,0,0,0,0,3Z"/>
  </g>
  <g class="cls-6">
    <path class="cls-7" d="M40.90827,156.968a.5003.5003,0,0,0,0-1,.5003.5003,0,0,0,0,1Z"/>
  </g>
  <g class="cls-6">
    <path class="cls-7" d="M36.67676,161.063a.5003.5003,0,0,0,0-1,.5003.5003,0,0,0,0,1Z"/>
  </g>
  <g class="cls-6">
    <path class="cls-7" d="M36.67676,156.057a1.5009,1.5009,0,0,0,0-3,1.5009,1.5009,0,0,0,0,3Z"/>
  </g>
</svg>
