<svg id="Layer_1" data-name="Layer 1" xmlns="http://www.w3.org/2000/svg" viewBox="0 0 32 32">
  <defs>
    <style>
      .cls-1 {
        fill: #302a49;
      }
    </style>
  </defs>
  <title>github</title>
  <path class="cls-1" d="M16.003,0a15.99836,15.99836,0,0,0-5.055,31.176c.8.146,1.052-.328,1.052-.752,0-.38.008-1.442,0-2.777-4.449.967-5.371-2.107-5.371-2.107A4.23572,4.23572,0,0,0,4.854,23.2c-1.452-.992.109-.973.109-.973a3.36287,3.36287,0,0,1,2.451,1.649,3.407,3.407,0,0,0,4.654,1.329,3.423,3.423,0,0,1,1.017-2.139c-3.552-.404-7.286-1.776-7.286-7.906a6.18121,6.18121,0,0,1,1.646-4.292,5.74251,5.74251,0,0,1,.157-4.234S8.945,6.204,12,8.275a15.17609,15.17609,0,0,1,8.01,0c3.055-2.07,4.396-1.641,4.396-1.641a5.75266,5.75266,0,0,1,.159,4.234,6.17975,6.17975,0,0,1,1.644,4.292c0,6.146-3.74,7.498-7.304,7.893A3.78315,3.78315,0,0,1,20,26v4.428c0,.428.258.901,1.07.746A15.99914,15.99914,0,0,0,16.003,0Z"/>
</svg>
