<svg id="Layer_1" data-name="Layer 1" xmlns="http://www.w3.org/2000/svg" xmlns:xlink="http://www.w3.org/1999/xlink" viewBox="0 0 3932 1080">
  <defs>
    <style>
      .cls-1 {
        fill: url(#linear-gradient);
      }

      .cls-2 {
        fill: url(#linear-gradient-2);
      }

      .cls-3 {
        fill: url(#linear-gradient-3);
      }

      .cls-4 {
        fill: #302a49;
      }

      .cls-5 {
        fill: url(#linear-gradient-4);
      }

      .cls-6 {
        fill: url(#linear-gradient-5);
      }

      .cls-7 {
        fill: url(#linear-gradient-6);
      }
    </style>
    <linearGradient id="linear-gradient" x1="54.23117" y1="546.56245" x2="1144.14089" y2="546.56245" gradientTransform="matrix(0, 0.79806, -1.85616, 0, 2014.50985, -43.09635)" gradientUnits="userSpaceOnUse">
      <stop offset="0" stop-color="#8647be"/>
      <stop offset="1" stop-color="#f8aeff" stop-opacity="0"/>
    </linearGradient>
    <linearGradient id="linear-gradient-2" x1="2892.24552" y1="601.68131" x2="2892.24552" y2="1194.02094" gradientTransform="matrix(0.99741, 0.07188, 0.07188, -0.99741, -1950.20798, 1015.85262)" gradientUnits="userSpaceOnUse">
      <stop offset="0" stop-color="#a879be"/>
      <stop offset="0.34306" stop-color="#c19bd0"/>
      <stop offset="1" stop-color="#f8e5f8"/>
    </linearGradient>
    <linearGradient id="linear-gradient-3" x1="-2661.77102" y1="220.02693" x2="-2661.77102" y2="785.71375" gradientTransform="translate(-1840.28417 358.27315) rotate(-172.18976)" gradientUnits="userSpaceOnUse">
      <stop offset="0" stop-color="#3e247f"/>
      <stop offset="0.14118" stop-color="#4b2f80" stop-opacity="0.98128"/>
      <stop offset="0.37129" stop-color="#6d4d84" stop-opacity="0.93046"/>
      <stop offset="0.66008" stop-color="#a47e8a" stop-opacity="0.84815"/>
      <stop offset="0.80857" stop-color="#c59a8e" stop-opacity="0.8"/>
    </linearGradient>
    <linearGradient id="linear-gradient-4" x1="52.7482" y1="596.94368" x2="1142.65792" y2="596.94368" gradientTransform="matrix(0, 0.79806, 1.85616, 0, 1865.45777, -43.09635)" xlink:href="#linear-gradient"/>
    <linearGradient id="linear-gradient-5" x1="2861.30068" y1="599.8036" x2="2861.30068" y2="1192.14323" gradientTransform="translate(5830.1756 1015.85262) rotate(175.87814)" xlink:href="#linear-gradient-2"/>
    <linearGradient id="linear-gradient-6" x1="-2622.00619" y1="215.58195" x2="-2622.00619" y2="781.26876" gradientTransform="matrix(0.99072, -0.13589, -0.13589, -0.99072, 5720.2518, 358.27315)" xlink:href="#linear-gradient-3"/>
  </defs>
  <title>header-2</title>
  <rect class="cls-1" y="0.18353" width="1999.99975" height="869.81647"/>
  <path class="cls-2" d="M5,222S466.38562,391.73968,485.2372,393.0982s46.53461,11.6439,69.51522,5.00958,12.7068-11.98047,24.53621-11.786,15.85361,10.09085,25.92093,1.868,17.98575-19.49567,24.80037-15.45154,33.73347,24.9335,40.80281,25.44294,18.6629,3.97681,17.99307,13.27169S718.17545,431.203,718.17545,431.203l9.3304,18.43753s11.86714-.32914,15.31691,1.1038,18.85158,1.35853,24.06344,11.20887,28.748,11.94123,28.748,11.94123,12.23151,22.00576,23.68481,21.94112,33.97409,10.63827,34.39863,4.74715,11.83185,11.117,8.88454,13.668,7.5718,4.49347,7.5718,4.49347,10.48382,13.3885,18.81629,12.80463,48.4805-4.4019,53.62493-21.00675,46.65481-.98044,82.97432-28.36644c0,0,13.68934,1.77607,15.96437-2.40257s47.23485-30.942,56.68895-30.65547,58.52545-6.83626,80.11574,11.30043,44.09675,7.12562,44.09675,7.12562,13.54976,20.14746,28.18819,19.70988,46.11434,1.04115,47.26426,1.5188,19.20554,18.35962,23.133,18.64265,24.29336,2.54025,24.03864,6.07492,18.9399,16.56747,24.07755,21.96942,13.74615,11.944,16.88808,12.17044,21.983,18.165,30.2306,18.75935,43.04256,32.71042,124.3893,5.01624c0,0,70.778-39.90445,75.3777-37.99385s39.52187,10.349,41.17774,9.28394,15.232,2.282,15.53984,3.48856,13.516,9.65921,17.05071,9.91393,13.18688-2.20794,20.02631,6.97012,22.23425,20.157,25.37618,20.38343,21.569,7.47607,22.97013,9.94573,19.12412,14.01116,22.29436,13.84484,2.46266,9.65221,9.92475,10.19,48.09858,22.81047,82.497,16.60419c0,0,9.00126,6.57039,12.13969,12.32349s26.473,16.11988,28.044,16.23309,1.7586,13.94406,7.64972,14.3686,22.72239,2.427,24.54459,4.53226,8.96945,12.48981,16.03879,12.99926S1985,672,1985,672L1925,98H5Z"/>
  <path class="cls-3" d="M-33,282c1.03293-35.9102,7-59,7-59L22,84H1942l9,246s10.74611,125.01285,10,125c-10.32993-.17786-105.547-25.53558-105.547-25.53558s-120.21767-57.64964-139.527-60.29821-93.70092-45.1814-102.71867-44.6299-35.20222-2.45334-35.20222-2.45334l-14.38262-2.67576s-55.46249,10.27758-60.83939,14.70687-9.89078-6.126-9.89078-6.126-34.533-3.22484-34.93267-9.00368-27.29287,4.84043-35.095,3.77024-32.70861-13.62775-38.52913-8.86187-25.85231,17.51864-38.33574,15.80635-45.02285-4.98322-49.48143,4.34138-35.23909,1.923-35.23909,1.923-25.892.423-34.71953-4.76231-41.49635-1.71738-42.368,1.74008-21.27983-1.32907-21.27983-1.32907-13.37754,7.70379-21.01915,5.46329-21.1193-2.49938-27.29375-21.23141c0,0-11.85686-9.17783-11.69633-10.34815s-14.25281-29.37882-19.98185-28.17741-94.689-13.78292-118.28528-1.12164c0,0-4.77964,11.66525-7.954,11.62729s-27.80462-3.01894-28.55375,2.44256-16.44489,6.88561-16.44489,6.88561l-68.80384-5.463s-9.25224,3.70657-11.9156,2.84066-17.69458-10.08171-17.69458-10.08171-38.82777-12.47986-43.31744-8.72377-28.92832,5.17332-30.43523,4.56917-22.56226,28.30354-38.71718,27.28-15.18309,3.48166-19.47427,2.89306-28.53133-3.51605-30.42836-4.17371-18.43339,9.79243-24.285,8.9898S606.87635,311.3835,602.233,307.567s-16.8592-7.47931-16.8592-7.47931-9.75956,7.40516-14.15775,7.59678-17.73956-15.549-17.73956-15.549-23.65155-7.21864-27.3075-3.74564-23.07493,26.246-30.09686,25.28282-79.44884,22.88536-85.713,27.98784-43.773,29.36863-49.62463,28.566-18.41785,12.57669-22.31892,12.0416-12.19855,19.39146-17.32346,19.08595-10.41721,9.30218-10.41721,9.30218L298.19153,408.944s-27.58192,6.94779-29.96053,9.8011-8.22334-6.69221-8.22334-6.69221-15.58874.6439-17.60833-2.0178-6.31943-14.77744-10.2205-15.31253-9.23313-8.02306-9.46271-9.24689-13.41908-29.66191-27.40943-31.97834-25.571-1.91766-31.74366-.37966-29.7172-6.46084-29.69478-12.41946-20.63083-14.75324-26.77419-27.91674-24.98241-6.20884-28.33284-7.86075-28.86284-32.97258-31.112-36.85811-36.76512-42.00544-73.36614-44.64114-58.06558-17.10585-117.871,13.24327c0,0,103.81186,113.753,87.58789,110.3353s-93.80929,5.17871-88,8C14.70548,432.07558-36.48717,297.53411-35,289c2.66662-15.30239-228.92526-58.58332-228.49719-61.70418"/>
  <path class="cls-4" d="M2135.46541,537.99052s-47.57,2.55091-52.87863-9.75788-47.59257-9.76756-52.90573-24.54-33.52352-24.57558-33.52352-24.57558L1966.14,444.68018s-29.94076,7.446-45.81248.084-38.2514-17.60039-38.2514-17.60039-16.48849-22.96549-18.8199-13.10591-23.5329-20.76251-23.5329-20.76251-28.21579-11.99365-29.79215-17.46593-22.77383-33.90432-25.11728-30.61492-25.84319.61639-28.19419-.21132-23.52439-16.11938-26.657-16.11363-30.56928-14.17941-33.68585-5.41342-43.02152,28.54976-43.02152,28.54976-24.22371,29.61034-32.83845,29.62614-12.4422,48.20432-113.52988,15.53861c0,0-58.83125-51.35876-71.38587-64.47616s-25.87234-15.28305-31.35847-17.46306-21.96458-19.67035-25.88037-19.66317-17.24956-10.91872-23.51282-9.81221-19.57122,4.26207-27.41069-.02672-29.80205-22.86411-36.06731-22.85263-9.38586,6.58742-20.35209,5.51249-36.8486-21.83314-43.10985-19.63159-25.08316-11.99939-32.11954-5.41629-67.24523,58.16011-75.86,58.1759-61.00405,45.00825-61.00405,45.00825l-32.87459,9.91558s-39.10126,30.97445-48.49236,34.70338-24.243,19.08665-24.243,19.08665-29.025-26.22762-34.53527-41.548-43.146-39.34214-43.93517-42.62579-47.05778-37.1449-54.89739-41.51067S801.0463,281.316,797.12047,275.848s-18.04879-19.67753-18.04879-19.67753l-23.52-13.74939-7.85247-11.37888s-36.85463-25.11823-39.20411-25.11392-41.51944-6.49409-41.5074.07609-20.332,16.46279-20.332,16.46279S631.80977,241.11,620.0624,241.1315s-27.38646,13.19062-64.24109-11.92761-35.30437-33.88134-40.00332-33.87272-30.53113,6.62617-33.68987-7.60348-25.10323-22.9497-25.10323-22.9497l-55.57013,18.71746s-21.93647-4.33992-24.28393-3.24059.0261,14.2354-10.93611,15.35053-32.11151-1.03616-34.45095,4.4433-28.13749,30.71255-28.13749,30.71255-15.6451,9.884-21.12721,9.894-33.64169,18.67726-68.90992,4.50647-36.06745-22.9296-47.02766-20.71944-29.75,5.52971-29.75,5.52971l-14.131-18.58968L80.428,221.31515s-16.50254-30.63071-25.12732-36.09007S29.00249,151.91991-38.16585,168.16C-147.38749,194.56774-38.23176,0-38.23176,0L2008.99785,1.02049Z"/>
  <rect class="cls-5" x="1999.96764" y="-0.99997" width="1947.03199" height="869.81647"/>
  <path class="cls-6" d="M3914.96763,221S3453.582,390.73968,3434.73042,392.0982s-46.5346,11.6439-69.51522,5.00958-12.70679-11.98047-24.53621-11.786-15.8536,10.09085-25.92093,1.868-17.98574-19.49567-24.80036-15.45154-33.73347,24.9335-40.80281,25.44294-18.66291,3.97681-17.99307,13.27169-29.36964,19.75006-29.36964,19.75006l-9.3304,18.43753s-11.86715-.32914-15.31691,1.1038-18.85159,1.35853-24.06344,11.20887-28.748,11.94123-28.748,11.94123-12.2315,22.00576-23.68481,21.94112-33.97408,10.63827-34.39862,4.74715-11.83186,11.117-8.88455,13.668-7.5718,4.49347-7.5718,4.49347-10.48381,13.3885-18.81629,12.80463S2951.14443,556.60485,2946,540s-15.30242-31.43841-51.62192-58.82441c0,0-13.68934,1.77607-15.96438-2.40257s-47.23485-30.942-56.68894-30.65547-58.52546-6.83626-80.11574,11.30043-44.09675,7.12562-44.09675,7.12562-13.54976,20.14746-28.18819,19.70988-46.11435,1.04115-47.26427,1.5188S2611.92741,510.717,2608,511s-33.3665-2.04482-33.11177,1.48985-18.93991,16.56747-24.07755,21.96942S2540.14193,556.77358,2537,557s-25.06044,7.79471-33.308,8.38906S2471.34674,580.69417,2390,553c0,0-81.47532-22.49915-86.075-20.58855s-39.52187,10.349-41.17774,9.28394-15.232,2.282-15.53984,3.48856-13.516,9.65921-17.0507,9.91393-13.18689-2.20794-20.02631,6.97012-22.23426,20.157-25.37619,20.38343-21.569,7.47607-22.97012,9.94573S2142.66,606.40832,2139.48973,606.242s-2.46267,9.65221-9.92475,10.19-48.09858,22.81047-82.497,16.60419c0,0-9.00125,6.57039-12.13968,12.32349S2021.571,644.88679,2020,645s-2.10888,15.57546-8,16-35.48778,17.38837-37.31,19.49359-8.96945,12.48981-16.0388,12.99926S1915,645,1915,645l79.96763-548h1920Z"/>
  <path class="cls-7" d="M3952.96763,281c-1.03294-35.9102-7-59-7-59l-48-139h-1920l-9,246s-10.74611,125.01285-10,125c10.32992-.17786,105.54705-25.53558,105.54705-25.53558s120.21767-57.64964,139.527-60.29821,93.70092-45.1814,102.71867-44.6299,35.20222-2.45334,35.20222-2.45334l14.38262-2.67576s55.46248,10.27758,60.83939,14.70687,9.89078-6.126,9.89078-6.126,34.533-3.22484,34.93266-9.00368,27.29287,4.84043,35.095,3.77024,32.70862-13.62775,38.52914-8.86187,25.8523,17.51864,38.33573,15.80635,45.02285-4.98322,49.48144,4.34138,35.23908,1.923,35.23908,1.923,25.89206.423,34.71954-4.76231,41.49634-1.71738,42.368,1.74008,21.27982-1.32907,21.27982-1.32907,13.37754,7.70379,21.01916,5.46329,21.1193-2.49938,27.29374-21.23141c0,0,11.85687-9.17783,11.69634-10.34815s14.2528-29.37882,19.98185-28.17741,94.689-13.78292,118.28528-1.12164c0,0,4.77964,11.66525,7.954,11.62729s27.80463-3.01894,28.55376,2.44256,16.44488,6.88561,16.44488,6.88561l68.80385-5.463s9.25224,3.70657,11.91559,2.84066,17.69459-10.08171,17.69459-10.08171,38.82776-12.47986,43.31743-8.72377,28.92832,5.17332,30.43524,4.56917,22.56226,28.30354,38.71718,27.28,15.18309,3.48166,19.47427,2.89306,28.53133-3.51605,30.42836-4.17371,18.43339,9.79243,24.285,8.9898,19.73494-3.89929,24.37826-7.71576,16.85921-7.47931,16.85921-7.47931,9.75955,7.40516,14.15775,7.59678,17.73956-15.549,17.73956-15.549,23.65155-7.21864,27.3075-3.74564,23.07492,26.246,30.09685,25.28282,79.44885,22.88536,85.713,27.98784,43.773,29.36863,49.62463,28.566,18.41785,12.57669,22.31892,12.0416,12.19855,19.39146,17.32345,19.08595,10.41721,9.30218,10.41721,9.30218l12.48343-1.71229s27.58193,6.94779,29.96054,9.8011,8.22333-6.69221,8.22333-6.69221,15.58875.6439,17.60833-2.0178,6.31944-14.77744,10.22051-15.31253,9.23313-8.02306,9.46271-9.24689,13.41908-29.6619,27.40943-31.97834,25.571-1.91766,31.74366-.37966,29.7172-6.46084,29.69477-12.41946,20.63084-14.75324,26.7742-27.91674,24.9824-6.20884,28.33284-7.86075,28.86284-32.97258,31.112-36.85811,36.76512-42.00544,73.36615-44.64114,58.06557-17.10585,117.871,13.24327c0,0-103.81187,113.753-87.58789,110.3353s93.80929,5.17871,88,8c-158.70548,77.07558-107.51284-57.46589-109-66-2.66662-15.30239,228.92526-58.58332,228.49718-61.70418"/>
  <path class="cls-4" d="M1649.65407,342.31931s182.41813,197.22212,187.72678,184.91333,47.59257-9.76756,52.90572-24.54S1923.8101,478.117,1923.8101,478.117l30.01755-34.43683s29.94077,7.446,45.81248.084,38.25141-17.60039,38.25141-17.60039,16.48849-22.96549,18.81989-13.10591,23.53291-20.76251,23.53291-20.76251,28.21579-11.99365,29.79214-17.46593,22.77384-33.90432,25.11729-30.61492,25.84319.61639,28.19419-.21132,23.52439-16.11938,26.657-16.11363,30.56928-14.17941,33.68586-5.41342,43.02152,28.54976,43.02152,28.54976,24.2237,29.61034,32.83844,29.62614,12.4422,48.20432,113.52988,15.53861c0,0,58.83125-51.35876,71.38588-64.47616s25.87234-15.28305,31.35846-17.46306,21.96458-19.67035,25.88037-19.66317,17.24957-10.91872,23.51283-9.81221,19.57121,4.26207,27.41069-.02672,29.802-22.86411,36.06731-22.85263,9.38586,6.58742,20.35208,5.51249,36.84861-21.83314,43.10986-19.63159,25.08316-11.99939,32.11954-5.41629,67.24522,58.16011,75.86,58.1759,61.004,45.00825,61.004,45.00825l32.87459,9.91558s39.10127,30.97445,48.49237,34.70338,24.243,19.08665,24.243,19.08665,29.025-26.22762,34.53526-41.548,43.146-39.34214,43.93518-42.62579,47.05777-37.1449,54.89739-41.51067,18.80183-3.25063,22.72766-8.71861,18.04878-19.67753,18.04878-19.67753l23.52005-13.74939,7.85247-11.37888s36.85463-25.11823,39.2041-25.11392,41.51945-6.49409,41.5074.07609,20.332,16.46279,20.332,16.46279,14.84588,18.6428,26.59326,18.66434,27.38645,13.19062,64.24108-11.92761,35.30437-33.88134,40.00332-33.87272,30.53114,6.62617,33.68987-7.60348,25.10324-22.9497,25.10324-22.9497l55.57012,18.71746s21.93647-4.33992,24.28394-3.24059-.0261,14.2354,10.93611,15.35053,32.11151-1.03616,34.45094,4.4433,28.1375,30.71255,28.1375,30.71255,15.6451,9.884,21.12721,9.894,33.64168,18.67726,68.90991,4.50647,36.06746-22.9296,47.02766-20.71944,29.75,5.52971,29.75,5.52971l14.131-18.58968,42.27249,9.93281s16.50255-30.63071,25.12733-36.09007,26.29822-33.30517,93.46656-17.06511c109.22164,26.40777.06591-168.16.06591-168.16L1729,6Z"/>
</svg>
