<?xml version="1.0" encoding="utf-8"?>
<!-- Generator: Adobe Illustrator 22.1.0, SVG Export Plug-In . SVG Version: 6.00 Build 0)  -->
<svg version="1.1" id="Layer_1" xmlns="http://www.w3.org/2000/svg" xmlns:xlink="http://www.w3.org/1999/xlink" x="0px" y="0px"
	 viewBox="0 0 1920 1080" style="enable-background:new 0 0 1920 1080;" xml:space="preserve">
<style type="text/css">
	.st0{fill:url(#SVGID_1_);}
	.st1{fill:url(#SVGID_2_);}
	.st2{fill:url(#SVGID_3_);}
	.st3{fill:#302A49;}
</style>
<linearGradient id="SVGID_1_" gradientUnits="userSpaceOnUse" x1="54.0012" y1="568.1122" x2="974.8961" y2="568.1122" gradientTransform="matrix(-1.000000e-15 0.7981 -1.8562 -4.000000e-15 2014.5099 -43.0964)">
	<stop  offset="0" style="stop-color:#8647BE"/>
	<stop  offset="1" style="stop-color:#F8AEFF;stop-opacity:0"/>
</linearGradient>
<rect x="0" y="0" class="st0" width="1920" height="734.9"/>
<linearGradient id="SVGID_2_" gradientUnits="userSpaceOnUse" x1="2881.9219" y1="699.0684" x2="2881.9219" y2="1291.4081" gradientTransform="matrix(0.9974 7.187805e-02 7.187805e-02 -0.9974 -1950.208 1015.8526)">
	<stop  offset="0" style="stop-color:#A879BE"/>
	<stop  offset="0.3431" style="stop-color:#C19BD0"/>
	<stop  offset="1" style="stop-color:#F8E5F8"/>
</linearGradient>
<path class="st1" d="M0,124c0,0,461.4,169.7,480.2,171.1c18.9,1.4,46.5,11.6,69.5,5c23-6.6,12.7-12,24.5-11.8
	c11.8,0.2,15.9,10.1,25.9,1.9s18-19.5,24.8-15.5c6.8,4,33.7,24.9,40.8,25.4c7.1,0.5,18.7,4,18,13.3c-0.7,9.3,29.4,19.8,29.4,19.8
	l9.3,18.4c0,0,11.9-0.3,15.3,1.1s18.9,1.4,24.1,11.2c5.2,9.9,28.7,11.9,28.7,11.9s12.2,22,23.7,21.9s34,10.6,34.4,4.7
	c0.4-5.9,11.8,11.1,8.9,13.7c-2.9,2.6,7.6,4.5,7.6,4.5s10.5,13.4,18.8,12.8c8.3-0.6,48.5-4.4,53.6-21c5.1-16.6,46.7-1,83-28.4
	c0,0,13.7,1.8,16-2.4c2.3-4.2,47.2-30.9,56.7-30.7s58.5-6.8,80.1,11.3c21.6,18.1,44.1,7.1,44.1,7.1s13.5,20.1,28.2,19.7
	s46.1,1,47.3,1.5s19.2,18.4,23.1,18.6c3.9,0.3,24.3,2.5,24,6.1c-0.3,3.5,18.9,16.6,24.1,22c5.1,5.4,13.7,11.9,16.9,12.2
	c3.1,0.2,22,18.2,30.2,18.8s43,32.7,124.4,5c0,0,70.8-39.9,75.4-38c4.6,1.9,39.5,10.3,41.2,9.3c1.7-1.1,15.2,2.3,15.5,3.5
	c0.3,1.2,13.5,9.7,17.1,9.9c3.5,0.3,13.2-2.2,20,7c6.8,9.2,22.2,20.2,25.4,20.4c3.1,0.2,21.6,7.5,23,9.9c1.4,2.5,19.1,14,22.3,13.8
	c3.2-0.2,2.5,9.7,9.9,10.2c7.5,0.5,48.1,22.8,82.5,16.6c0,0,9,6.6,12.1,12.3s26.5,16.1,28,16.2c1.6,0.1,1.8,13.9,7.6,14.4
	c5.9,0.4,22.7,2.4,24.5,4.5s9,12.5,16,13s26.1-7.9,26.1-7.9L1920,0H0V124z"/>
<linearGradient id="SVGID_3_" gradientUnits="userSpaceOnUse" x1="-2628.5601" y1="301.1946" x2="-2628.5601" y2="865.9449" gradientTransform="matrix(-0.9907 -0.1359 0.1359 -0.9907 -1840.2842 358.2731)">
	<stop  offset="0" style="stop-color:#3E247F"/>
	<stop  offset="0.1096" style="stop-color:#472C80;stop-opacity:0.9729"/>
	<stop  offset="0.2881" style="stop-color:#5F4183;stop-opacity:0.9287"/>
	<stop  offset="0.5136" style="stop-color:#876487;stop-opacity:0.873"/>
	<stop  offset="0.7747" style="stop-color:#BD938D;stop-opacity:0.8084"/>
	<stop  offset="0.8086" style="stop-color:#C59A8E;stop-opacity:0.8"/>
</linearGradient>
<path class="st2" d="M-19,198c1-35.9-29-59-29-59L0,0h1920l9,246c0,0,10.7,125,10,125c-10.3-0.2-105.5-25.5-105.5-25.5
	s-120.2-57.6-139.5-60.3c-19.3-2.6-93.7-45.2-102.7-44.6c-9,0.6-35.2-2.5-35.2-2.5l-14.4-2.7c0,0-55.5,10.3-60.8,14.7
	c-5.4,4.4-9.9-6.1-9.9-6.1s-34.5-3.2-34.9-9c-0.4-5.8-27.3,4.8-35.1,3.8c-7.8-1.1-32.7-13.6-38.5-8.9s-25.9,17.5-38.3,15.8
	c-12.5-1.7-45-5-49.5,4.3c-4.5,9.3-35.2,1.9-35.2,1.9s-25.9,0.4-34.7-4.8c-8.8-5.2-41.5-1.7-42.4,1.7c-0.9,3.5-21.3-1.3-21.3-1.3
	s-13.4,7.7-21,5.5c-7.6-2.2-21.1-2.5-27.3-21.2c0,0-11.9-9.2-11.7-10.3c0.2-1.2-14.3-29.4-20-28.2c-5.7,1.2-94.7-13.8-118.3-1.1
	c0,0-4.8,11.7-8,11.6c-3.2,0-27.8-3-28.6,2.4c-0.7,5.5-16.4,6.9-16.4,6.9l-68.8-5.5c0,0-9.3,3.7-11.9,2.8
	c-2.7-0.9-17.7-10.1-17.7-10.1s-38.8-12.5-43.3-8.7c-4.5,3.8-28.9,5.2-30.4,4.6c-1.5-0.6-22.6,28.3-38.7,27.3
	c-16.2-1-15.2,3.5-19.5,2.9c-4.3-0.6-28.5-3.5-30.4-4.2s-18.4,9.8-24.3,9c-5.9-0.8-19.7-3.9-24.4-7.7c-4.6-3.8-16.9-7.5-16.9-7.5
	s-9.8,7.4-14.2,7.6c-4.4,0.2-17.7-15.5-17.7-15.5s-23.7-7.2-27.3-3.7c-3.7,3.5-23.1,26.2-30.1,25.3c-7-1-79.4,22.9-85.7,28
	c-6.3,5.1-43.8,29.4-49.6,28.6c-5.9-0.8-18.4,12.6-22.3,12c-3.9-0.5-12.2,19.4-17.3,19.1c-5.1-0.3-10.4,9.3-10.4,9.3l-12.5-1.7
	c0,0-27.6,6.9-30,9.8c-2.4,2.9-8.2-6.7-8.2-6.7s-15.6,0.6-17.6-2c-2-2.7-6.3-14.8-10.2-15.3c-3.9-0.5-9.2-8-9.5-9.2
	c-0.2-1.2-13.4-29.7-27.4-32c-14-2.3-25.6-1.9-31.7-0.4c-6.2,1.5-29.7-6.5-29.7-12.4c0-6-20.6-14.8-26.8-27.9
	c-6.1-13.2-25-6.2-28.3-7.9s-28.9-33-31.1-36.9c-2.2-3.9-36.8-42-73.4-44.6c-36.6-2.6-58.1-17.1-117.9,13.2
	c0,0,162.8,113.8,146.6,110.3s-152.8,5.2-147,8C-7.3,348.1-20.5,206.5-19,198c2.7-15.3-266.9-51.6-266.5-54.7"/>
<path class="st3" d="M2038.4,395.9c0,0-44.6,1.9-49.6-7.2c-5-9.1-44.6-7.2-49.6-18.1s-31.4-18.1-31.4-18.1l-28.1-25.4
	c0,0-28.1,5.5-43,0.1c-14.9-5.4-35.9-13-35.9-13s-15.5-16.9-17.6-9.7s-22.1-15.3-22.1-15.3s-26.5-8.8-27.9-12.9
	c-1.5-4-21.3-25-23.5-22.6c-2.2,2.4-24.2,0.5-26.4-0.1c-2.2-0.6-22.1-11.9-25-11.9c-2.9,0-28.7-10.4-31.6-4
	c-2.9,6.5-40.4,21.1-40.4,21.1s-22.7,21.8-30.8,21.9c-8.1,0-11.7,35.6-106.5,11.5c0,0-55.2-37.8-66.9-47.5
	c-11.8-9.7-24.3-11.3-29.4-12.9c-5.1-1.6-20.6-14.5-24.3-14.5c-3.7,0-16.2-8-22-7.2c-5.9,0.8-18.4,3.2-25.7,0
	c-7.4-3.2-27.9-16.8-33.8-16.8s-8.8,4.9-19.1,4.1c-10.3-0.8-34.6-16.1-40.4-14.5c-5.9,1.6-23.5-8.8-30.1-4
	c-6.6,4.9-63.1,42.9-71.2,42.9c-8.1,0-57.2,33.2-57.2,33.2l-30.8,7.3c0,0-36.7,22.9-45.5,25.6s-22.7,14.1-22.7,14.1
	s-27.2-19.3-32.4-30.6c-5.2-11.3-40.5-29-41.2-31.4s-44.1-27.4-51.5-30.6c-7.4-3.2-17.6-2.4-21.3-6.4c-3.7-4-16.9-14.5-16.9-14.5
	l-22.1-10.1l-7.4-8.4c0,0-34.6-18.5-36.8-18.5c-2.2,0-38.9-4.8-38.9,0.1c0,4.8-19.1,12.1-19.1,12.1s-13.9,13.8-24.9,13.8
	c-11,0-25.7,9.7-60.2-8.8s-33.1-25-37.5-25c-4.4,0-28.6,4.9-31.6-5.6c-3-10.5-23.5-16.9-23.5-16.9l-52.1,13.8c0,0-20.6-3.2-22.8-2.4
	s0,10.5-10.3,11.3c-10.3,0.8-30.1-0.8-32.3,3.3c-2.2,4-26.4,22.7-26.4,22.7s-14.7,7.3-19.8,7.3s-31.6,13.8-64.6,3.3
	c-33.1-10.4-33.8-16.9-44.1-15.3c-10.3,1.6-27.9,4.1-27.9,4.1l-13.2-13.7l-39.6,7.3c0,0-15.5-22.6-23.6-26.6
	C79.6,132.5,63,112,0,124C-102.4,143.5,0,0,0,0h1920L2038.4,395.9z"/>
</svg>
