<?xml version="1.0" encoding="utf-8"?>
<!-- Generator: Adobe Illustrator 22.1.0, SVG Export Plug-In . SVG Version: 6.00 Build 0)  -->
<svg version="1.1" id="Layer_1" xmlns="http://www.w3.org/2000/svg" xmlns:xlink="http://www.w3.org/1999/xlink" x="0px" y="0px"
	 viewBox="0 0 1920 1080" style="enable-background:new 0 0 1920 1080;" xml:space="preserve">
<style type="text/css">
	.st0{fill:url(#SVGID_1_);}
	.st1{fill:url(#SVGID_2_);}
	.st2{fill:url(#SVGID_3_);}
	.st3{fill:#302A49;}
</style>
<linearGradient id="SVGID_1_" gradientUnits="userSpaceOnUse" x1="54.0012" y1="568.1122" x2="974.8961" y2="568.1122" gradientTransform="matrix(-1.000000e-15 0.7981 -1.8562 -4.000000e-15 2014.5099 -43.0964)">
	<stop  offset="0" style="stop-color:#8647BE"/>
	<stop  offset="1" style="stop-color:#F8AEFF;stop-opacity:0"/>
</linearGradient>
<rect x="0" y="0" class="st0" width="1920" height="734.9"/>
<linearGradient id="SVGID_2_" gradientUnits="userSpaceOnUse" x1="2893.9529" y1="601.6813" x2="2893.9529" y2="1194.021" gradientTransform="matrix(0.9974 7.187805e-02 7.187805e-02 -0.9974 -1950.208 1015.8526)">
	<stop  offset="0" style="stop-color:#A879BE"/>
	<stop  offset="0.3431" style="stop-color:#C19BD0"/>
	<stop  offset="1" style="stop-color:#F8E5F8"/>
</linearGradient>
<path class="st1" d="M5,222c0,0,461.4,169.7,480.2,171.1c18.9,1.4,46.5,11.6,69.5,5c23-6.6,12.7-12,24.5-11.8
	c11.8,0.2,15.9,10.1,25.9,1.9s18-19.5,24.8-15.5c6.8,4,33.7,24.9,40.8,25.4c7.1,0.5,18.7,4,18,13.3c-0.7,9.3,29.4,19.8,29.4,19.8
	l9.3,18.4c0,0,11.9-0.3,15.3,1.1s18.9,1.4,24.1,11.2c5.2,9.9,28.7,11.9,28.7,11.9s12.2,22,23.7,21.9s34,10.6,34.4,4.7
	c0.4-5.9,11.8,11.1,8.9,13.7c-2.9,2.6,7.6,4.5,7.6,4.5s10.5,13.4,18.8,12.8s48.5-4.4,53.6-21c5.1-16.6,46.7-1,83-28.4
	c0,0,13.7,1.8,16-2.4c2.3-4.2,47.2-30.9,56.7-30.7s58.5-6.8,80.1,11.3c21.6,18.1,44.1,7.1,44.1,7.1s13.5,20.1,28.2,19.7
	s46.1,1,47.3,1.5s19.2,18.4,23.1,18.6c3.9,0.3,24.3,2.5,24,6.1c-0.3,3.5,18.9,16.6,24.1,22c5.1,5.4,13.7,11.9,16.9,12.2
	c3.1,0.2,22,18.2,30.2,18.8s43,32.7,124.4,5c0,0,70.8-39.9,75.4-38c4.6,1.9,39.5,10.3,41.2,9.3c1.7-1.1,15.2,2.3,15.5,3.5
	c0.3,1.2,13.5,9.7,17.1,9.9c3.5,0.3,13.2-2.2,20,7c6.8,9.2,22.2,20.2,25.4,20.4c3.1,0.2,21.6,7.5,23,9.9c1.4,2.5,19.1,14,22.3,13.8
	c3.2-0.2,2.5,9.7,9.9,10.2c7.5,0.5,48.1,22.8,82.5,16.6c0,0,9,6.6,12.1,12.3s26.5,16.1,28,16.2c1.6,0.1,1.8,13.9,7.6,14.4
	c5.9,0.4,22.7,2.4,24.5,4.5s9,12.5,16,13s26.1-7.9,26.1-7.9L1925,98H5V222z"/>
<linearGradient id="SVGID_3_" gradientUnits="userSpaceOnUse" x1="-2661.771" y1="220.0269" x2="-2661.771" y2="785.7137" gradientTransform="matrix(-0.9907 -0.1359 0.1359 -0.9907 -1840.2842 358.2731)">
	<stop  offset="0" style="stop-color:#3E247F"/>
	<stop  offset="0.1096" style="stop-color:#472C80;stop-opacity:0.9729"/>
	<stop  offset="0.2881" style="stop-color:#5F4183;stop-opacity:0.9287"/>
	<stop  offset="0.5136" style="stop-color:#876487;stop-opacity:0.873"/>
	<stop  offset="0.7747" style="stop-color:#BD938D;stop-opacity:0.8084"/>
	<stop  offset="0.8086" style="stop-color:#C59A8E;stop-opacity:0.8"/>
</linearGradient>
<path class="st2" d="M-33,282c1-35.9,7-59,7-59L22,84h1920l9,246c0,0,10.7,125,10,125c-10.3-0.2-105.5-25.5-105.5-25.5
	s-120.2-57.6-139.5-60.3c-19.3-2.6-93.7-45.2-102.7-44.6c-9,0.6-35.2-2.5-35.2-2.5l-14.4-2.7c0,0-55.5,10.3-60.8,14.7
	c-5.4,4.4-9.9-6.1-9.9-6.1s-34.5-3.2-34.9-9c-0.4-5.8-27.3,4.8-35.1,3.8c-7.8-1.1-32.7-13.6-38.5-8.9s-25.9,17.5-38.3,15.8
	c-12.5-1.7-45-5-49.5,4.3c-4.5,9.3-35.2,1.9-35.2,1.9s-25.9,0.4-34.7-4.8c-8.8-5.2-41.5-1.7-42.4,1.7s-21.3-1.3-21.3-1.3
	s-13.4,7.7-21,5.5c-7.6-2.2-21.1-2.5-27.3-21.2c0,0-11.9-9.2-11.7-10.3s-14.3-29.4-20-28.2c-5.7,1.2-94.7-13.8-118.3-1.1
	c0,0-4.8,11.7-8,11.6c-3.2,0-27.8-3-28.6,2.4c-0.7,5.5-16.4,6.9-16.4,6.9l-68.8-5.5c0,0-9.3,3.7-11.9,2.8
	c-2.7-0.9-17.7-10.1-17.7-10.1s-38.8-12.5-43.3-8.7c-4.5,3.8-28.9,5.2-30.4,4.6c-1.5-0.6-22.6,28.3-38.7,27.3
	c-16.2-1-15.2,3.5-19.5,2.9s-28.5-3.5-30.4-4.2s-18.4,9.8-24.3,9c-5.9-0.8-19.7-3.9-24.4-7.7c-4.6-3.8-16.9-7.5-16.9-7.5
	s-9.8,7.4-14.2,7.6c-4.4,0.2-17.7-15.5-17.7-15.5s-23.7-7.2-27.3-3.7s-23.1,26.2-30.1,25.3c-7-1-79.4,22.9-85.7,28
	c-6.3,5.1-43.8,29.4-49.6,28.6c-5.9-0.8-18.4,12.6-22.3,12c-3.9-0.5-12.2,19.4-17.3,19.1c-5.1-0.3-10.4,9.3-10.4,9.3l-12.5-1.7
	c0,0-27.6,6.9-30,9.8c-2.4,2.9-8.2-6.7-8.2-6.7s-15.6,0.6-17.6-2c-2-2.7-6.3-14.8-10.2-15.3c-3.9-0.5-9.2-8-9.5-9.2
	c-0.2-1.2-13.4-29.7-27.4-32c-14-2.3-25.6-1.9-31.7-0.4c-6.2,1.5-29.7-6.5-29.7-12.4c0-6-20.6-14.8-26.8-27.9s-25-6.2-28.3-7.9
	c-3.4-1.7-28.9-33-31.1-36.9s-36.8-42-73.4-44.6c-36.6-2.6-58.1-17.1-117.9,13.2c0,0,103.8,113.8,87.6,110.3s-93.8,5.2-88,8
	c158.7,77.1,107.5-57.5,109-66c2.7-15.3-228.9-58.6-228.5-61.7"/>
<path class="st3" d="M2135.5,538c0,0-47.6,2.6-52.9-9.8c-5.3-12.3-47.6-9.8-52.9-24.5c-5.3-14.8-33.5-24.6-33.5-24.6l-30-34.4
	c0,0-29.9,7.4-45.8,0.1c-15.9-7.4-38.3-17.6-38.3-17.6s-16.5-23-18.8-13.1c-2.3,9.9-23.5-20.8-23.5-20.8s-28.2-12-29.8-17.5
	c-1.6-5.5-22.8-33.9-25.1-30.6c-2.3,3.3-25.8,0.6-28.2-0.2c-2.4-0.8-23.5-16.1-26.7-16.1s-30.6-14.2-33.7-5.4s-43,28.5-43,28.5
	s-24.2,29.6-32.8,29.6c-8.6,0-12.4,48.2-113.5,15.5c0,0-58.8-51.4-71.4-64.5c-12.6-13.1-25.9-15.3-31.4-17.5
	c-5.5-2.2-22-19.7-25.9-19.7s-17.2-10.9-23.5-9.8c-6.3,1.1-19.6,4.3-27.4,0s-29.8-22.9-36.1-22.9c-6.3,0-9.4,6.6-20.4,5.5
	c-11-1.1-36.8-21.8-43.1-19.6c-6.3,2.2-25.1-12-32.1-5.4s-67.2,58.2-75.9,58.2c-8.6,0-61,45-61,45l-32.9,9.9c0,0-39.1,31-48.5,34.7
	c-9.4,3.7-24.2,19.1-24.2,19.1s-29-26.2-34.5-41.5c-5.5-15.3-43.1-39.3-43.9-42.6c-0.8-3.3-47.1-37.1-54.9-41.5
	c-7.8-4.4-18.8-3.3-22.7-8.7c-3.9-5.5-18-19.7-18-19.7l-23.5-13.7l-7.9-11.4c0,0-36.9-25.1-39.2-25.1c-2.3,0-41.5-6.5-41.5,0.1
	c0,6.6-20.3,16.5-20.3,16.5s-14.8,18.6-26.6,18.7s-27.4,13.2-64.2-11.9c-36.9-25.1-35.3-33.9-40-33.9c-4.7,0-30.5,6.6-33.7-7.6
	c-3.2-14.2-25.1-22.9-25.1-22.9l-55.6,18.7c0,0-21.9-4.3-24.3-3.2c-2.3,1.1,0,14.2-10.9,15.4s-32.1-1-34.5,4.4
	c-2.3,5.5-28.1,30.7-28.1,30.7s-15.6,9.9-21.1,9.9c-5.5,0-33.6,18.7-68.9,4.5c-35.3-14.2-36.1-22.9-47-20.7s-29.7,5.5-29.7,5.5
	l-14.1-18.6l-42.3,9.9c0,0-16.5-30.6-25.1-36.1S29,151.9-38.2,168.2C-147.4,194.6-38.2,0-38.2,0L2009,1L2135.5,538z"/>
</svg>
