<svg id="Layer_1" data-name="Layer 1" xmlns="http://www.w3.org/2000/svg" viewBox="0 0 551.56 174.15"><defs><style>.cls-1{fill:none;}.cls-1,.cls-2{stroke:#fff;stroke-miterlimit:10;stroke-width:3px;}.cls-2{fill:#5a52a3;}</style></defs><title>icons</title><path class="cls-1" d="M506.92,157.91s23.33-21.2-3.18-46.12L500.56,99.6s-18-7.95-29.69,0l-3.18,9s-36.57,47.18,16.44,57.78" transform="translate(-134.36 -41.23)"/><path class="cls-1" d="M355.31,157.91s-23.32-21.2,3.18-46.12l3.18-12.19s18-7.95,29.69,0l3.18,9s36.58,47.18-16.43,57.78" transform="translate(-134.36 -41.23)"/><path class="cls-1" d="M574.61,76.39s17.5-25.34,28.56-9S594.08,97,594.08,97,550.28,133.91,577,157s51.89,6.64,53.5,1.81" transform="translate(-134.36 -41.23)"/><line class="cls-1" x1="461.98" y1="126.5" x2="461.98" y2="166.15"/><line class="cls-1" x1="485.34" y1="125.36" x2="485.34" y2="166.15"/><line class="cls-1" x1="447.72" y1="169.9" x2="499.36" y2="169.9"/><path class="cls-1" d="M603.17,67.34s18.43-2.62,19.19-19.77" transform="translate(-134.36 -41.23)"/><path class="cls-1" d="M655.39,133.11s53-37.46,15.78-78.69l-49.61,47.12s-10.22,8-1.86,20.26,36.63,37.46,36.63,37.46,13,13.66-.24,18.84" transform="translate(-134.36 -41.23)"/><ellipse class="cls-2" cx="440.18" cy="34.51" rx="0.07" ry="0.64"/><ellipse class="cls-2" cx="487.55" cy="6.12" rx="0.47" ry="0.67"/><circle class="cls-2" cx="496.4" cy="117.86" r="0.23"/><ellipse class="cls-2" cx="521.69" cy="136.5" rx="0.04" ry="0.37"/><ellipse class="cls-2" cx="520.94" cy="91.52" rx="0.08" ry="0.36"/><polygon class="cls-1" points="447.72 169.9 447.72 169.9 447.72 169.9 447.72 169.9 447.72 169.9"/><circle class="cls-2" cx="447.96" cy="170.14" r="0.25"/><circle class="cls-2" cx="499.56" cy="169.9" r="0.25"/><path class="cls-1" d="M515.83,142l6.8,44.75s6.85,19.13-10.73,25.07-26-7.93-26-7.93l-20.15-44.53" transform="translate(-134.36 -41.23)"/><path class="cls-1" d="M346.45,142.58l-6.8,44.75s-6.85,19.12,10.73,25.07,26-7.93,26-7.93l20.15-44.53" transform="translate(-134.36 -41.23)"/><path class="cls-1" d="M358.49,111.79c.13-2.4,15-12.14,38-1.14" transform="translate(-134.36 -41.23)"/><path class="cls-1" d="M466.06,110.9c.88-1.27,16.69-12.2,37.31.36" transform="translate(-134.36 -41.23)"/><line class="cls-1" x1="218.65" y1="127.85" x2="215.84" y2="149.33"/><path class="cls-1" d="M512.32,183.14s5.89,20.2-9,21" transform="translate(-134.36 -41.23)"/><line class="cls-1" x1="265.51" y1="115.37" x2="308.15" y2="115.37"/><line class="cls-1" x1="259.25" y1="125.16" x2="335.1" y2="125.16"/><line class="cls-1" x1="265.51" y1="74.75" x2="328.54" y2="74.75"/><line class="cls-1" x1="292.7" y1="105.93" x2="304.1" y2="105.93"/><circle class="cls-1" cx="350.92" cy="110.58" r="6.51"/><circle class="cls-1" cx="336.13" cy="95.63" r="6.51"/><circle class="cls-1" cx="350.92" cy="80.67" r="6.51"/><circle class="cls-1" cx="365.75" cy="95.63" r="6.51"/><path class="cls-1" d="M371.19,128.33v-7a2,2,0,0,1,2-2h8.38a2,2,0,0,1,2,2v7a2,2,0,0,0,2,2h8a2,2,0,0,1,2,2v9a2,2,0,0,1-2,2H385.4a2,2,0,0,0-2,2v7.86a2,2,0,0,1-2,2H373.2a2,2,0,0,1-2-2v-7.86a2,2,0,0,0-2-2h-7.54a2,2,0,0,1-2-2v-9a2,2,0,0,1,2-2h7.54A2,2,0,0,0,371.19,128.33Z" transform="translate(-134.36 -41.23)"/><path class="cls-1" d="M430.49,116s-2.59-16.88,2.27-21.79,17.55-21.56,16-26.69C447.3,62.74,431.6,29.31,406,48.75A41.35,41.35,0,0,0,398,57c-6.1,8.19-26,31-45,10" transform="translate(-134.36 -41.23)"/><rect class="cls-1" x="292.38" y="104.72" width="12.53" height="2.57" rx="1.24" ry="1.24"/><path class="cls-1" d="M149.4,104s-2.88-32.18,5.29-40.34S173.42,42.07,207,44s52.16-3.42,65.32,36c0,0,1.44,22.7,1,24s2.44,7,3.26,7.83,4.68,21,3.86,22.79-6.1,2.64-5.69,4.27,8.95,2.24,9.56,4.07,5.7,16.88,2.24,21-9.57,12.41-9.57,12.41-1.42,13.23-3.86,16.08-15.26,19.73-23.4,19.12-15.26-.81-18.31-3.26-7.93-6.51-7.93-6.51-6.72,13.23-23.2.82c0,0-12,14.48-30.51,9S148.07,181,148.07,181s-12.41-22.17-12.21-24.21,1.22-14.44,5.7-16.07,7.12.81,7.12-1-6.92-2.64-6.31-7.53S147.28,107,149.4,104Z" transform="translate(-134.36 -41.23)"/><circle class="cls-1" cx="40.24" cy="142.55" r="9.09"/><circle class="cls-1" cx="115.75" cy="142.55" r="9.09"/><path class="cls-1" d="M174.6,158.63s19.17-5.71,23.25-9.44c4.8-4.39,21.3-5.71,26.45-1.42s25.81,10.86,25.81,10.86" transform="translate(-134.36 -41.23)"/><path class="cls-1" d="M164.09,109.05h37.07s-.19,24.84-22.5,23S164.09,109.05,164.09,109.05Z" transform="translate(-134.36 -41.23)"/><line class="cls-1" x1="14.75" y1="43" x2="138.26" y2="43"/><line class="cls-1" x1="14.59" y1="53.64" x2="138.26" y2="53.64"/><path class="cls-1" d="M200.35,202.59s-8.77-28.37,11.49-33.57" transform="translate(-134.36 -41.23)"/><path class="cls-1" d="M223.32,202.59s8.77-28.37-11.48-33.57" transform="translate(-134.36 -41.23)"/><path class="cls-1" d="M260.16,109.05H223.09s.18,24.84,22.5,23S260.16,109.05,260.16,109.05Z" transform="translate(-134.36 -41.23)"/><circle class="cls-1" cx="40.24" cy="117.4" r="0.63"/><circle class="cls-1" cx="115.12" cy="117.4" r="0.63"/><circle class="cls-1" cx="77.48" cy="127.34" r="0.63"/><path class="cls-1" d="M594.05,115.47s-20,38.08,27.36,37.06" transform="translate(-134.36 -41.23)"/><circle class="cls-2" cx="459.88" cy="73.62" r="0.62"/><circle class="cls-1" cx="486.77" cy="111.03" r="0.28"/><circle class="cls-2" cx="218.83" cy="25.96" r="0.18"/></svg>
