<svg xmlns="http://www.w3.org/2000/svg" xmlns:xlink="http://www.w3.org/1999/xlink" viewBox="0 0 253.16 289.34"><defs><style>.cls-1{stroke:#302a48;fill:url(#linear-gradient);}.cls-1,.cls-6{stroke-miterlimit:10;}.cls-2{opacity:0.38;}.cls-3{fill:#fff;}.cls-4{fill:url(#linear-gradient-2);}.cls-5{fill:url(#linear-gradient-3);}.cls-6{fill:#100f12;stroke:#1a181d;}</style><linearGradient id="linear-gradient" x1="126.58" y1="30.49" x2="126.58" y2="282.64" gradientUnits="userSpaceOnUse"><stop offset="0" stop-color="#7d52a1"/><stop offset="1" stop-color="#f6aecd" stop-opacity="0"/></linearGradient><linearGradient id="linear-gradient-2" x1="187.66" y1="64.12" x2="187.66" y2="321.27" gradientUnits="userSpaceOnUse"><stop offset="0" stop-color="#d19a2a"/><stop offset="0.05" stop-color="#cfa349" stop-opacity="0.81"/><stop offset="0.12" stop-color="#ceac67" stop-opacity="0.62"/><stop offset="0.19" stop-color="#cdb483" stop-opacity="0.45"/><stop offset="0.26" stop-color="#cbbb99" stop-opacity="0.31"/><stop offset="0.34" stop-color="#cbc1ac" stop-opacity="0.2"/><stop offset="0.44" stop-color="#cac5ba" stop-opacity="0.11"/><stop offset="0.55" stop-color="#c9c8c4" stop-opacity="0.05"/><stop offset="0.69" stop-color="#c9c9ca" stop-opacity="0.01"/><stop offset="0.99" stop-color="#c9cacc" stop-opacity="0"/></linearGradient><linearGradient id="linear-gradient-3" x1="128.65" y1="82.49" x2="128.65" y2="310.8" gradientUnits="userSpaceOnUse"><stop offset="0" stop-color="#fff"/><stop offset="0.13" stop-color="#f7f7f7" stop-opacity="0.94"/><stop offset="0.3" stop-color="#eeeff0" stop-opacity="0.88"/><stop offset="0.49" stop-color="#e9e9ea" stop-opacity="0.83"/><stop offset="0.71" stop-color="#e5e6e7" stop-opacity="0.81"/><stop offset="1" stop-color="#e4e5e6" stop-opacity="0.8"/></linearGradient></defs><title>penguin</title><g id="Layer_3" data-name="Layer 3"><circle class="cls-1" cx="126.58" cy="156.56" r="126.08"/></g><g id="Layer_6" data-name="Layer 6"><g class="cls-2"><path class="cls-3" d="M65.72,94.14a.5.5,0,0,0,0-1,.5.5,0,0,0,0,1Z" transform="translate(-49.69 -31.93)"/></g><g class="cls-2"><path class="cls-3" d="M100.29,117a.5.5,0,0,0,0-1,.5.5,0,0,0,0,1Z" transform="translate(-49.69 -31.93)"/></g><g class="cls-2"><path class="cls-3" d="M111.71,101.11a.5.5,0,0,0,0-1,.5.5,0,0,0,0,1Z" transform="translate(-49.69 -31.93)"/></g><g class="cls-2"><path class="cls-3" d="M270,130.29a.5.5,0,0,0,0-1,.5.5,0,0,0,0,1Z" transform="translate(-49.69 -31.93)"/></g><g class="cls-2"><path class="cls-3" d="M281.39,157.25a.5.5,0,0,0,0-1,.5.5,0,0,0,0,1Z" transform="translate(-49.69 -31.93)"/></g><g class="cls-2"><path class="cls-3" d="M267.11,145.2a.5.5,0,0,0,0-1,.5.5,0,0,0,0,1Z" transform="translate(-49.69 -31.93)"/></g><g class="cls-2"><path class="cls-3" d="M264.58,180.09a.5.5,0,0,0,0-1,.5.5,0,0,0,0,1Z" transform="translate(-49.69 -31.93)"/></g><g class="cls-2"><path class="cls-3" d="M94.26,155.35a.5.5,0,0,0,0-1,.5.5,0,0,0,0,1Z" transform="translate(-49.69 -31.93)"/></g><g class="cls-2"><path class="cls-3" d="M68.26,137.9a.5.5,0,0,0,0-1,.5.5,0,0,0,0,1Z" transform="translate(-49.69 -31.93)"/></g><g class="cls-2"><path class="cls-3" d="M75.87,162.64a.5.5,0,0,0,0-1,.5.5,0,0,0,0,1Z" transform="translate(-49.69 -31.93)"/></g><g class="cls-2"><path class="cls-3" d="M98.7,136a.5.5,0,0,0,0-1,.5.5,0,0,0,0,1Z" transform="translate(-49.69 -31.93)"/></g><g class="cls-2"><path class="cls-3" d="M84.11,122.36a.5.5,0,0,0,0-1,.5.5,0,0,0,0,1Z" transform="translate(-49.69 -31.93)"/></g><g class="cls-2"><path class="cls-3" d="M249.67,94.14a.5.5,0,0,0,0-1,.5.5,0,0,0,0,1Z" transform="translate(-49.69 -31.93)"/></g><g class="cls-2"><path class="cls-3" d="M248.4,108.72a.5.5,0,0,0,0-1,.5.5,0,0,0,0,1Z" transform="translate(-49.69 -31.93)"/></g><g class="cls-2"><path class="cls-3" d="M269.65,108.09a.5.5,0,0,0,0-1,.5.5,0,0,0,0,1Z" transform="translate(-49.69 -31.93)"/></g><g class="cls-2"><path class="cls-3" d="M82.85,183.89a.5.5,0,0,0,0-1,.5.5,0,0,0,0,1Z" transform="translate(-49.69 -31.93)"/></g><g class="cls-2"><path class="cls-3" d="M68.57,182.31a.5.5,0,0,0,0-1,.5.5,0,0,0,0,1Z" transform="translate(-49.69 -31.93)"/></g><g class="cls-2"><path class="cls-3" d="M61.91,160.74a.5.5,0,0,0,0-1,.5.5,0,0,0,0,1Z" transform="translate(-49.69 -31.93)"/></g><g class="cls-2"><path class="cls-3" d="M90.77,166.76a.5.5,0,0,0,0-1,.5.5,0,0,0,0,1Z" transform="translate(-49.69 -31.93)"/></g><g class="cls-2"><path class="cls-3" d="M89.82,199.12a.5.5,0,0,0,0-1,.5.5,0,0,0,0,1Z" transform="translate(-49.69 -31.93)"/></g><g class="cls-2"><path class="cls-3" d="M72.06,195.63a.5.5,0,0,0,0-1,.5.5,0,0,0,0,1Z" transform="translate(-49.69 -31.93)"/></g><g class="cls-2"><path class="cls-3" d="M119.32,99.53a.5.5,0,0,0,0-1,.5.5,0,0,0,0,1Z" transform="translate(-49.69 -31.93)"/></g><g class="cls-2"><path class="cls-3" d="M121.22,85.89a.5.5,0,0,0,0-1,.5.5,0,0,0,0,1Z" transform="translate(-49.69 -31.93)"/></g><g class="cls-2"><path class="cls-3" d="M100.61,93.82a.5.5,0,0,0,0-1,.5.5,0,0,0,0,1Z" transform="translate(-49.69 -31.93)"/></g><g class="cls-2"><path class="cls-3" d="M98.7,106.05a1,1,0,0,0,0-2,1,1,0,0,0,0,2Z" transform="translate(-49.69 -31.93)"/></g><g class="cls-2"><path class="cls-3" d="M256.65,127a1,1,0,0,0,0-2,1,1,0,0,0,0,2Z" transform="translate(-49.69 -31.93)"/></g><g class="cls-2"><path class="cls-3" d="M279.17,183.76a1,1,0,0,0,0-2,1,1,0,0,0,0,2Z" transform="translate(-49.69 -31.93)"/></g><g class="cls-2"><path class="cls-3" d="M85.38,145.7a1,1,0,0,0,0-2,1,1,0,0,0,0,2Z" transform="translate(-49.69 -31.93)"/></g><g class="cls-2"><path class="cls-3" d="M256.33,101.48a1.5,1.5,0,0,0,0-3,1.5,1.5,0,0,0,0,3Z" transform="translate(-49.69 -31.93)"/></g><g class="cls-2"><path class="cls-3" d="M68.26,158.57a1.5,1.5,0,0,0,0-3,1.5,1.5,0,0,0,0,3Z" transform="translate(-49.69 -31.93)"/></g><g class="cls-2"><path class="cls-3" d="M262,162.37a1.5,1.5,0,0,0,0-3,1.5,1.5,0,0,0,0,3Z" transform="translate(-49.69 -31.93)"/></g><g class="cls-2"><path class="cls-3" d="M283.29,210a1.5,1.5,0,0,0,0-3,1.5,1.5,0,0,0,0,3Z" transform="translate(-49.69 -31.93)"/></g><g class="cls-2"><path class="cls-3" d="M76.19,209a1.5,1.5,0,0,0,0-3,1.5,1.5,0,0,0,0,3Z" transform="translate(-49.69 -31.93)"/></g><g class="cls-2"><path class="cls-3" d="M59.06,196.31a1.5,1.5,0,0,0,0-3,1.5,1.5,0,0,0,0,3Z" transform="translate(-49.69 -31.93)"/></g><g class="cls-2"><path class="cls-3" d="M283.12,144.14a1.5,1.5,0,0,0,0-3,1.5,1.5,0,0,0,0,3Z" transform="translate(-49.69 -31.93)"/></g><g class="cls-2"><path class="cls-3" d="M162.79,55.81a1.5,1.5,0,0,0,0-3,1.5,1.5,0,0,0,0,3Z" transform="translate(-49.69 -31.93)"/></g></g><g id="Layer_5" data-name="Layer 5"><path class="cls-4" d="M232.56,106.16l-2.76-4.86,4-2-2.57-6.41L218.72,69.74,197,64.12,176.27,83.49l-15.55,9.4.42,39.35L146.6,146.78,117.09,256.26,130.5,285l5.29,23-.27.62.91.55.82.32c1.77.43,3.53.94,5.27,1.44a1.51,1.51,0,0,1-.8,2.9c-.81-.18-1.63-.37-2.44-.58a1.49,1.49,0,0,1-2.22.19c-.34-.32-.69-.6-1.05-.89-.74,0-1.47,0-2.19,0l-.9,2.08,60.73,6.7,61.12-27.37V285l3.45-19.71Z" transform="translate(-49.69 -31.93)"/></g><g id="Layer_4" data-name="Layer 4"><path class="cls-5" d="M135.79,207.36c18.51-43.19,30.06-72.7,29.63-76.55s-1-39.46-8.12-41.69a79.87,79.87,0,0,1-14.55-6.63L133.35,94l-29.51,99.6-12,64.2,7.9,29.77c.51.31,1,.62,1.53.91a1.48,1.48,0,0,1,.62.68,1.14,1.14,0,0,1,.48.86,1.64,1.64,0,0,1,.62.28c1,.8,2.06,1.58,3.08,2.35a1.41,1.41,0,0,1,.79.25,135.77,135.77,0,0,0,15.38,9c1.79.76,3.58,1.53,5.4,2.25a25.67,25.67,0,0,1,2.44,1.14q3.09,1.15,6.28,2l.06-.23S117.28,250.56,135.79,207.36Z" transform="translate(-49.69 -31.93)"/></g><g id="Layer_2" data-name="Layer 2"><path class="cls-6" d="M233.43,85.59S216.91,26.38,144,42.5c0,0-37-10.07-40.68-10.07s-13.69,6.44-9.67,13.69c0,0,40.68,26.58,39.48,37.46S82.06,213.46,89.31,278.31l9.12,8.5c.68.42,1.36.82,2,1.22-1.26-3.32-4.25-14.49-2-41.73,2.82-33.83,41.89-159.9,41.89-159.9s12.88-1.61,16.91,2,12.49,11.68,20.54,10.07,13.7-.8,12.89-16.92S218.52,65.45,221.34,80l8.46,21.35s-39.07-5.64-50.75,16.92-4,189.7,37.86,179.63c0,0,23.77.81,35-45.91,0,0,4.43,29,2.82,33s8.46-4.83,8.46-4.83S247.49,95.74,233.43,85.59Z" transform="translate(-49.69 -31.93)"/></g></svg>
